<svg width="549" height="826" viewBox="0 0 549 826" fill="none" xmlns="http://www.w3.org/2000/svg">
<g filter="url(#filter0_dd)">
<path d="M459.9 817.6H88.6C41.9 817.6 4.09998 779.8 4.09998 733.1V84.9C4.09998 38.2 41.9 0.399994 88.6 0.399994H459.9C506.6 0.399994 544.4 38.2 544.4 84.9V733.1C544.4 779.8 506.6 817.6 459.9 817.6Z" fill="white"/>
<path d="M471 778.1H77.4C58.7 778.1 43.5 762.9 43.5 744.2V73.7C43.5 55 58.7 39.8 77.4 39.8H471C489.7 39.8 504.9 55 504.9 73.7V744.2C504.9 762.9 489.7 778.1 471 778.1ZM77.4 47.7C63 47.7 51.4 59.4 51.4 73.7V744.2C51.4 758.6 63.1 770.2 77.4 770.2H471C485.4 770.2 497 758.5 497 744.2V73.7C497 59.3 485.3 47.7 471 47.7H77.4Z" fill="#EE2E2B"/>
<path d="M440.7 734.7H107.8C96.3 734.7 87 725.4 87 713.9V104.1C87 92.6 96.3 83.3 107.8 83.3H440.7C452.2 83.3 461.5 92.6 461.5 104.1V713.9C461.5 725.4 452.1 734.7 440.7 734.7ZM107.8 91.1C100.6 91.1 94.8 96.9 94.8 104.1V713.9C94.8 721.1 100.6 726.9 107.8 726.9H440.7C447.9 726.9 453.7 721.1 453.7 713.9V104.1C453.7 96.9 447.9 91.1 440.7 91.1H107.8Z" fill="#EE2E2B"/>
<path d="M230.4 58.1C232.6 52.9 236.8 59.9 236.8 62.8C236.8 66.5 234.6 69.9 231.1 71.3C224 74.1 219 67.3 214.2 63.3C204.2 55.2 188.9 47.6 175.7 50.9C165.1 53.5 157.3 66.9 166.4 75.7C175 84 188.5 77.4 188.8 66C188.9 61.8 182.4 61.8 182.3 66C182.1 73.5 171.5 75.9 169.1 68.2C166.6 59.9 177.5 56.3 183.5 56.7C190.8 57.2 198.2 60.4 204.3 64.2C209.9 67.7 214.2 73.3 220 76.4C230.1 81.9 242.8 75.1 243.3 63.4C243.5 58.4 241.3 53 236.6 50.7C232.3 48.7 226.8 50.2 224.9 54.7C223.1 58.6 228.7 62 230.4 58.1Z" fill="#EE2E2B"/>
<path d="M118.3 59.5C118.1 68.9 128.5 77 137.7 74.4C142.4 73.1 143.9 68.3 148 66.1C152.5 63.7 157.6 64.5 161.6 67.5C164.9 70 168.2 64.4 164.9 61.9C159.5 57.8 151.9 57.1 145.7 60C142.2 61.6 140.6 64.3 137.9 66.8C133 71.3 124.7 65.2 124.8 59.5C124.9 55.3 118.4 55.3 118.3 59.5Z" fill="#EE2E2B"/>
<path d="M129.8 58.9C134 58.9 134 52.4 129.8 52.4C125.6 52.4 125.6 58.9 129.8 58.9Z" fill="#EE2E2B"/>
<path d="M197.1 76.7C201.3 76.7 201.3 70.2 197.1 70.2C192.9 70.2 192.9 76.7 197.1 76.7Z" fill="#EE2E2B"/>
<path d="M120.1 62.6C116.3 64.6 112 62.7 108.4 61.3C104.3 59.7 100.2 57.9 96.1 56.4C90 54.1 82.9 52.9 77.1 56.7C65.7 64 73.9 82 86.8 76.2C90.6 74.5 87.3 68.9 83.5 70.6C80.6 71.9 77.9 69.3 78 66.4C78.1 63.3 81 61.5 83.8 60.9C88.6 59.9 93.6 62.3 97.9 64.1C105.8 67.3 115 72.7 123.5 68.3C127.1 66.3 123.9 60.7 120.1 62.6Z" fill="#EE2E2B"/>
<path d="M77.4 81.4C74.9 76.5 69.8 72.9 64.1 74C58.9 75 55 79.4 55.2 84.8C55.3 90.9 59.8 95.3 63.7 99.5C66.2 102.1 68.1 104.7 68.7 108.4C69.4 112.7 69.2 117.3 69.4 121.6C69.6 125.8 76.1 125.8 75.9 121.6C75.5 112.8 76.1 103.9 70.1 96.8C67.3 93.5 63.3 90.7 62.1 86.5C61.2 83.5 62.7 80.3 66.2 80.3C68.9 80.3 70.7 82.5 71.8 84.7C73.7 88.4 79.3 85.1 77.4 81.4Z" fill="#EE2E2B"/>
<path d="M60.2 223.3C55.8 225.2 54.2 230.4 56 234.6C58 239.3 63.3 241.8 68.2 241.8C80.1 241.8 87.4001 228.8 81.8001 218.4C78.8001 212.8 73.4 208.7 70 203.3C66.2 197.3 63.1001 190.2 62.3001 183C61.6001 176.9 64.4 165.8 72.9 167.4C81.2 168.9 79.4 180.5 71.4 180.7C67.2 180.8 67.2 187.3 71.4 187.2C82.5 186.9 89.4 174 81.5 165.2C72.8 155.5 59.0001 163.3 56.3001 174.1C53.1001 187.1 60.4001 202.1 68.3001 212C72.3001 217 79.6 222.2 76.7 229.5C75.3 233 71.9 235.2 68.2 235.2C65.3 235.2 58.3 231.1 63.5 228.8C67.3 227.3 64 221.7 60.2 223.3Z" fill="#EE2E2B"/>
<path d="M64.9 123.4C70.2 123.3 76.1 130.5 72.9 135.5C70.8 138.8 67.2 140.5 65.4 144.2C62.5 150.4 63.1 157.9 67.3 163.4C69.8 166.7 75.5 163.5 72.9 160.1C70 156.3 69.2 151.5 71.2 147.1C73.2 142.7 78.4 141 79.8 136.2C82.5 126.9 74.2 116.6 64.9 116.8C60.7 117 60.7 123.5 64.9 123.4Z" fill="#EE2E2B"/>
<path d="M61 131.7C65.2 131.7 65.2 125.2 61 125.2C56.8 125.2 56.8 131.7 61 131.7Z" fill="#EE2E2B"/>
<path d="M78.8 199C83 199 83 192.5 78.8 192.5C74.6 192.4 74.6 199 78.8 199Z" fill="#EE2E2B"/>
<path d="M57.8 253.8C64 260.3 72.7 257.2 79.5 253.7C83.2 251.8 79.9 246.1 76.2 248.1C72.1 250.2 66.3 253.3 62.4 249.3C59.5 246.2 54.9 250.8 57.8 253.8Z" fill="#EE2E2B"/>
<path d="M62.8 263.1C56.4 267.9 52.8 277.3 56 285.1C59.1 292.7 68.7 295.2 75.3 290.4C78.5 288.1 80.5 284.5 81.7 280.8C82.8 277.2 84.6 271.4 82.3 267.9C79.4 263.4 66.4 257.5 63.1 264.2C61.3 268 66.9 271.3 68.7 267.5C68.8 267.3 68.9 267.1 69 266.9C68.4 267.4 67.7 267.9 67.1 268.4C70.2 267.2 76.7 269 76.7 272.7C76.7 276.6 75 282.3 71.9 284.9C67.8 288.4 62.1 285.7 61.5 280.6C61 276.4 62.7 271.4 66.1 268.9C69.4 266.3 66.2 260.6 62.8 263.1Z" fill="#EE2E2B"/>
<path d="M72.6 276C72.6 275.9 72.6 275.8 72.6 275.7C72.6 274 71.1 272.4 69.3 272.4C67.5 272.5 66 273.8 66 275.7C66 275.8 66 275.9 66 276C66 277.7 67.5 279.3 69.3 279.3C71.1 279.2 72.6 277.8 72.6 276Z" fill="#EE2E2B"/>
<path d="M62.1 308.7C59.4 305.9 66.3 303.1 67.8 302.9C70.5 302.5 72.7 303.5 74.1 305.8C76.4 309.6 75.3 314.6 73.1 318.2C68.1 326.6 58.9 331.6 55.3 341C52.1 349.2 55 358.5 61 364.6C64.3 368 68.5 370.2 72 373.3C73.7 374.8 75.3 376.5 76.1 378.7C76.8 380.6 77.5 387 73.2 385.5C69.2 384.1 67.5 390.4 71.5 391.8C75.9 393.4 80.3 390.9 82.2 386.8C84.1 382.7 83.2 377.9 81.1 374.1C75.7 364.3 61.1 361.9 60.5 349C59.9 336.6 74.9 329.8 79.8 319.7C83.6 312 82.5 300.6 73.5 297.1C64.7 293.7 48.5 304 57.6 313.3C60.5 316.3 65.1 311.6 62.1 308.7Z" fill="#EE2E2B"/>
<path d="M66.2 387.4C66.2 387.3 66.2 387.2 66.2 387.1C66.2 385.4 64.7 383.8 62.9 383.8C61.1 383.9 59.6 385.2 59.6 387.1C59.6 387.2 59.6 387.3 59.6 387.4C59.6 389.1 61.1 390.7 62.9 390.7C64.7 390.6 66.2 389.2 66.2 387.4Z" fill="#EE2E2B"/>
<path d="M73.2 335.9C66 341.4 66 350.9 72.1 357.3C75 360.4 79.6 355.7 76.7 352.7C73.8 349.6 72.7 344.4 76.5 341.5C79.8 339.1 76.5 333.4 73.2 335.9Z" fill="#EE2E2B"/>
<path d="M59.2 323.8C63.4 323.8 63.4 317.3 59.2 317.3C55 317.3 55 323.8 59.2 323.8Z" fill="#EE2E2B"/>
<path d="M60.7 413.4C62.3 411.7 64 409.9 65.6 408.2C67 406.7 68.6 404.3 70.3 403.1C69.2 403.1 68.1 403.1 67 403.1C68.8 404.1 70.5 406.6 71.8 408.2C73.4 410 74.9 411.8 76.3 413.7C78.9 417 83.5 412.4 80.9 409.1C78 405.4 74.5 399.8 70.3 397.5C69.3 397 68 396.9 67 397.5C62.9 400.2 59.4 405.2 56.1 408.8C53.3 411.8 57.9 416.5 60.7 413.4Z" fill="#EE2E2B"/>
<path d="M60.7 431.9C62.3 430.2 64 428.4 65.6 426.7C67 425.2 68.6 422.8 70.3 421.6C69.2 421.6 68.1 421.6 67 421.6C68.8 422.6 70.5 425.1 71.8 426.7C73.4 428.5 74.9 430.3 76.3 432.2C78.9 435.5 83.5 430.9 80.9 427.6C78 423.9 74.5 418.3 70.3 416C69.3 415.5 68 415.4 67 416C62.9 418.7 59.4 423.7 56.1 427.3C53.3 430.4 57.9 435 60.7 431.9Z" fill="#EE2E2B"/>
<path d="M74.6 437.8C70.3 443.7 64.7 448 58.2 451C56.1 452 56.1 455.7 58.2 456.6C63.5 459 64.1 466 68 469.8C71.3 473 76 473.9 80 471.7C78.5 470.2 77 468.7 75.5 467.2C71.8 472.9 67.1 477.8 61.5 481.7C59.9 482.8 59.1 485.3 60.8 486.8C65.7 491.1 71 494.7 76.8 497.8C80.5 499.7 83.8 494.1 80.1 492.2C74.8 489.4 69.9 486.2 65.4 482.3C65.2 484 65 485.7 64.7 487.4C71.3 482.9 76.7 477.3 81 470.6C82.8 467.8 79.3 464.6 76.5 466.1C72.4 468.4 69.8 461 68.4 458.4C66.7 455.3 64.6 452.5 61.3 451C61.3 452.9 61.3 454.7 61.3 456.6C68.9 453.2 75.2 447.9 80.1 441.1C82.7 437.7 77 434.5 74.6 437.8Z" fill="#EE2E2B"/>
<path d="M67 487.3C61.9 490.3 58.5 495.4 58 501.3C57.5 507.6 60.7 512.6 64.7 517.2C69.9 523 74.9 528.3 72.2 536.8C71.2 540.1 68.3 544.2 64.2 543.2C59.6 542 60.8 531.8 63.7 532.9C67.6 534.4 69.3 528.1 65.4 526.6C55.5 522.9 52.4 537.8 55.9 544.3C60.2 552.5 71.5 550.6 76.1 543.8C81.5 535.7 80 525.2 74.1 518C71 514.3 66.7 511 65 506.3C63.2 501.2 65.8 495.7 70.3 493C73.9 490.8 70.6 485.2 67 487.3Z" fill="#EE2E2B"/>
<path d="M76 511.2C80.2 511.2 80.2 504.7 76 504.7C71.8 504.7 71.8 511.2 76 511.2Z" fill="#EE2E2B"/>
<path d="M62.2 474.2C62.3 474.1 62.5 473.9 62.6 473.8C63.8 472.6 63.9 470.4 62.6 469.2C61.3 468 59.3 467.9 58 469.2C57.9 469.3 57.7 469.5 57.6 469.6C56.4 470.8 56.3 473 57.6 474.2C58.9 475.4 60.9 475.5 62.2 474.2Z" fill="#EE2E2B"/>
<path d="M64.7 548.2C67.8 555.8 70.8 563.3 73.9 570.9C74.9 569.5 76 568.2 77 566.8C63.1 568 56 582.7 57 595.5C57.4 601 60.4 606.7 66.1 608.2C71.1 609.5 76.3 606.5 77.5 601.5C78.5 597.4 72.2 595.7 71.2 599.8C70.2 604.2 65.4 601.3 64.2 598.7C62.6 595.3 63.3 590.9 64.1 587.5C65.6 580.9 69.5 574 76.9 573.4C78.8 573.2 80.9 571.4 80 569.3C76.9 561.7 73.9 554.2 70.8 546.6C69.5 542.7 63.2 544.4 64.7 548.2Z" fill="#EE2E2B"/>
<path d="M74.7 594.1C78.9 594.1 78.9 587.6 74.7 587.6C70.5 587.6 70.5 594.1 74.7 594.1Z" fill="#EE2E2B"/>
<path d="M60.8 564.1C65 564.1 65 557.6 60.8 557.6C56.6 557.6 56.6 564.1 60.8 564.1Z" fill="#EE2E2B"/>
<path d="M318.1 758.9C315.9 764.1 311.7 757.1 311.7 754.2C311.7 750.5 313.9 747.1 317.4 745.7C324.5 742.9 329.5 749.7 334.3 753.7C344.3 761.8 359.6 769.4 372.8 766.1C383.4 763.5 391.2 750.1 382.1 741.3C373.5 733 360 739.6 359.7 751C359.6 755.2 366.1 755.2 366.2 751C366.4 743.5 377 741.1 379.4 748.8C381.9 757.1 371 760.7 365 760.3C357.7 759.8 350.3 756.6 344.2 752.8C338.6 749.3 334.3 743.7 328.5 740.6C318.4 735.1 305.7 741.9 305.2 753.6C305 758.6 307.2 764 311.9 766.3C316.2 768.3 321.7 766.8 323.6 762.3C325.3 758.4 319.7 755 318.1 758.9Z" fill="#EE2E2B"/>
<path d="M430.1 757.5C430.3 748.1 419.9 740 410.7 742.6C406 743.9 404.5 748.7 400.4 750.9C395.9 753.3 390.8 752.5 386.8 749.5C383.5 747 380.2 752.6 383.5 755.1C388.9 759.2 396.5 759.9 402.7 757C406.2 755.4 407.8 752.7 410.5 750.2C415.4 745.7 423.7 751.8 423.6 757.5C423.5 761.6 430 761.6 430.1 757.5Z" fill="#EE2E2B"/>
<path d="M418.6 764.6C422.8 764.6 422.8 758.1 418.6 758.1C414.4 758.1 414.4 764.6 418.6 764.6Z" fill="#EE2E2B"/>
<path d="M351.4 746.8C355.6 746.8 355.6 740.3 351.4 740.3C347.2 740.3 347.2 746.8 351.4 746.8Z" fill="#EE2E2B"/>
<path d="M428.3 754.3C432.1 752.3 436.4 754.2 440 755.6C444.1 757.2 448.2 759 452.3 760.5C458.4 762.8 465.5 764 471.3 760.2C482.7 752.9 474.5 734.9 461.6 740.7C457.8 742.4 461.1 748 464.9 746.3C467.8 745 470.5 747.6 470.4 750.5C470.3 753.6 467.4 755.4 464.6 756C459.8 757 454.8 754.6 450.5 752.8C442.6 749.6 433.4 744.2 424.9 748.6C421.3 750.7 424.6 756.3 428.3 754.3Z" fill="#EE2E2B"/>
<path d="M471 735.6C473.5 740.5 478.6 744.1 484.3 743C489.5 742 493.4 737.6 493.2 732.2C493.1 726.1 488.6 721.7 484.7 717.5C482.2 714.9 480.3 712.3 479.7 708.6C479 704.3 479.2 699.7 479 695.4C478.8 691.2 472.3 691.2 472.5 695.4C472.9 704.2 472.3 713.1 478.3 720.2C481.1 723.5 485.1 726.3 486.3 730.5C487.2 733.5 485.7 736.7 482.2 736.7C479.5 736.7 477.7 734.5 476.6 732.3C474.8 728.6 469.1 731.9 471 735.6Z" fill="#EE2E2B"/>
<path d="M488.3 593.7C492.7 591.8 494.3 586.6 492.5 582.4C490.5 577.7 485.2 575.2 480.3 575.2C468.4 575.2 461.1 588.2 466.7 598.6C469.7 604.2 475.1 608.3 478.5 613.7C482.3 619.7 485.4 626.8 486.2 634C486.9 640.1 484.1 651.2 475.6 649.6C467.3 648.1 469.1 636.5 477.1 636.3C481.3 636.2 481.3 629.7 477.1 629.8C466 630.1 459.1 643 467 651.8C475.7 661.5 489.5 653.7 492.2 642.9C495.4 629.9 488.1 614.9 480.2 605C476.2 600 468.9 594.8 471.8 587.5C473.2 584 476.6 581.8 480.3 581.8C483.2 581.8 490.2 585.9 485 588.2C481.2 589.7 484.5 595.3 488.3 593.7Z" fill="#EE2E2B"/>
<path d="M483.6 693.5C478.3 693.6 472.4 686.4 475.6 681.4C477.7 678.1 481.3 676.4 483.1 672.7C486 666.5 485.4 659 481.2 653.5C478.7 650.2 473 653.4 475.6 656.8C478.5 660.6 479.3 665.4 477.3 669.8C475.3 674.2 470.1 675.9 468.7 680.7C466 690 474.3 700.3 483.6 700.1C487.8 700 487.8 693.5 483.6 693.5Z" fill="#EE2E2B"/>
<path d="M487.5 691.8C491.7 691.8 491.7 685.3 487.5 685.3C483.3 685.3 483.3 691.8 487.5 691.8Z" fill="#EE2E2B"/>
<path d="M469.7 624.6C473.9 624.6 473.9 618.1 469.7 618.1C465.5 618 465.5 624.6 469.7 624.6Z" fill="#EE2E2B"/>
<path d="M490.6 563.2C484.4 556.7 475.7 559.8 468.9 563.3C465.2 565.2 468.5 570.9 472.2 568.9C476.3 566.8 482.1 563.7 486 567.7C488.9 570.8 493.5 566.2 490.6 563.2Z" fill="#EE2E2B"/>
<path d="M485.6 553.9C492 549.1 495.6 539.7 492.4 531.9C489.3 524.3 479.7 521.8 473.1 526.6C469.9 528.9 467.9 532.5 466.7 536.2C465.6 539.8 463.8 545.6 466.1 549.1C469 553.6 482 559.5 485.3 552.8C487.1 549 481.5 545.7 479.7 549.5C479.6 549.7 479.5 549.9 479.4 550.1C480 549.6 480.7 549.1 481.3 548.6C478.2 549.8 471.7 548 471.7 544.3C471.7 540.4 473.4 534.7 476.5 532.1C480.6 528.6 486.3 531.3 486.9 536.4C487.4 540.6 485.7 545.6 482.3 548.1C479 550.7 482.3 556.4 485.6 553.9Z" fill="#EE2E2B"/>
<path d="M475.9 541C475.9 541.1 475.9 541.2 475.9 541.3C475.9 543 477.4 544.6 479.2 544.6C481 544.5 482.5 543.2 482.5 541.3C482.5 541.2 482.5 541.1 482.5 541C482.5 539.3 481 537.7 479.2 537.7C477.3 537.8 475.9 539.2 475.9 541Z" fill="#EE2E2B"/>
<path d="M486.3 508.3C489 511.1 482.1 513.9 480.6 514.1C477.9 514.5 475.7 513.5 474.3 511.2C472 507.4 473.1 502.4 475.3 498.8C480.3 490.4 489.5 485.4 493.1 476C496.3 467.8 493.4 458.5 487.4 452.4C484.1 449 479.9 446.8 476.4 443.7C474.7 442.2 473.1 440.5 472.3 438.3C471.6 436.4 470.9 430 475.2 431.5C479.2 432.9 480.9 426.6 476.9 425.2C472.5 423.6 468.1 426.1 466.2 430.2C464.3 434.3 465.2 439.1 467.3 442.9C472.7 452.7 487.3 455.1 487.9 468C488.5 480.4 473.5 487.2 468.6 497.3C464.8 505 465.9 516.4 474.9 519.9C483.7 523.3 499.9 513 490.8 503.7C488 500.7 483.4 505.3 486.3 508.3Z" fill="#EE2E2B"/>
<path d="M482.2 429.6C482.2 429.7 482.2 429.8 482.2 429.9C482.2 431.6 483.7 433.2 485.5 433.2C487.3 433.1 488.8 431.8 488.8 429.9C488.8 429.8 488.8 429.7 488.8 429.6C488.8 427.9 487.3 426.3 485.5 426.3C483.7 426.4 482.2 427.8 482.2 429.6Z" fill="#EE2E2B"/>
<path d="M475.3 481C482.5 475.5 482.5 466 476.4 459.6C473.5 456.5 468.9 461.2 471.8 464.2C474.7 467.3 475.8 472.5 472 475.4C468.7 477.9 471.9 483.6 475.3 481Z" fill="#EE2E2B"/>
<path d="M489.2 499.7C493.4 499.7 493.4 493.2 489.2 493.2C485.1 493.2 485 499.7 489.2 499.7Z" fill="#EE2E2B"/>
<path d="M487.7 403.6C486.1 405.3 484.4 407.1 482.8 408.8C481.4 410.3 479.8 412.7 478.1 413.9C479.2 413.9 480.3 413.9 481.4 413.9C479.6 412.9 477.9 410.4 476.6 408.8C475 407 473.5 405.2 472.1 403.3C469.5 400 464.9 404.6 467.5 407.9C470.4 411.6 473.9 417.2 478.1 419.5C479.1 420 480.4 420.1 481.4 419.5C485.5 416.8 489 411.8 492.3 408.2C495.2 405.2 490.6 400.5 487.7 403.6Z" fill="#EE2E2B"/>
<path d="M487.7 385.1C486.1 386.8 484.4 388.6 482.8 390.3C481.4 391.8 479.8 394.2 478.1 395.4C479.2 395.4 480.3 395.4 481.4 395.4C479.6 394.4 477.9 391.9 476.6 390.3C475 388.5 473.5 386.7 472.1 384.8C469.5 381.5 464.9 386.1 467.5 389.4C470.4 393.1 473.9 398.7 478.1 401C479.1 401.5 480.4 401.6 481.4 401C485.5 398.3 489 393.3 492.3 389.7C495.2 386.6 490.6 382 487.7 385.1Z" fill="#EE2E2B"/>
<path d="M473.9 379.2C478.2 373.3 483.8 369 490.3 366C492.4 365 492.4 361.3 490.3 360.4C485 358 484.4 351 480.5 347.2C477.2 344 472.5 343.1 468.5 345.3C470 346.8 471.5 348.3 473 349.8C476.7 344.1 481.4 339.2 487 335.3C488.6 334.2 489.4 331.7 487.7 330.2C482.8 325.9 477.5 322.3 471.7 319.2C468 317.3 464.7 322.9 468.4 324.8C473.7 327.6 478.6 330.8 483.1 334.7C483.3 333 483.5 331.3 483.8 329.6C477.2 334.1 471.8 339.7 467.5 346.4C465.7 349.2 469.2 352.4 472 350.9C476.1 348.6 478.7 356 480.1 358.6C481.8 361.7 483.9 364.5 487.2 366C487.2 364.1 487.2 362.3 487.2 360.4C479.6 363.8 473.3 369.1 468.4 375.9C465.8 379.3 471.4 382.5 473.9 379.2Z" fill="#EE2E2B"/>
<path d="M481.5 329.7C486.6 326.7 490 321.6 490.5 315.7C491 309.4 487.8 304.4 483.8 299.8C478.6 294 473.6 288.7 476.3 280.2C477.3 276.9 480.2 272.8 484.3 273.8C488.9 275 487.7 285.2 484.8 284.1C480.9 282.6 479.2 288.9 483.1 290.4C493 294.1 496.1 279.2 492.6 272.7C488.3 264.5 477 266.4 472.4 273.2C467 281.3 468.5 291.8 474.4 299C477.5 302.7 481.8 306 483.5 310.7C485.3 315.8 482.7 321.3 478.2 324C474.6 326.2 477.9 331.8 481.5 329.7Z" fill="#EE2E2B"/>
<path d="M472.5 312.3C476.7 312.3 476.7 305.8 472.5 305.8C468.3 305.8 468.3 312.3 472.5 312.3Z" fill="#EE2E2B"/>
<path d="M486.2 342.8C486.1 342.9 485.9 343.1 485.8 343.2C484.6 344.4 484.5 346.6 485.8 347.8C487.1 349 489.1 349.1 490.4 347.8C490.5 347.7 490.7 347.5 490.8 347.4C492 346.2 492.1 344 490.8 342.8C489.5 341.6 487.5 341.5 486.2 342.8Z" fill="#EE2E2B"/>
<path d="M483.7 268.7C480.6 261.1 477.6 253.6 474.5 246C473.5 247.4 472.4 248.7 471.4 250.1C485.3 248.9 492.4 234.2 491.4 221.4C491 215.9 488 210.2 482.3 208.7C477.3 207.4 472.1 210.4 470.9 215.4C469.9 219.5 476.2 221.2 477.2 217.1C478.2 212.7 483 215.6 484.2 218.2C485.8 221.6 485.1 226 484.3 229.4C482.8 236 478.9 242.9 471.5 243.5C469.6 243.7 467.5 245.5 468.4 247.6C471.5 255.2 474.5 262.7 477.6 270.3C479 274.3 485.3 272.6 483.7 268.7Z" fill="#EE2E2B"/>
<path d="M473.8 229.4C478 229.4 478 222.9 473.8 222.9C469.6 222.9 469.6 229.4 473.8 229.4Z" fill="#EE2E2B"/>
<path d="M487.6 259.4C491.8 259.4 491.8 252.9 487.6 252.9C483.5 252.9 483.5 259.4 487.6 259.4Z" fill="#EE2E2B"/>
<path d="M230.4 58.1C232.6 52.9 236.8 59.9 236.8 62.8C236.8 66.5 234.6 69.9 231.1 71.3C224 74.1 219 67.3 214.2 63.3C204.2 55.2 188.9 47.6 175.7 50.9C165.1 53.5 157.3 66.9 166.4 75.7C175 84 188.5 77.4 188.8 66C188.9 61.8 182.4 61.8 182.3 66C182.1 73.5 171.5 75.9 169.1 68.2C166.6 59.9 177.5 56.3 183.5 56.7C190.8 57.2 198.2 60.4 204.3 64.2C209.9 67.7 214.2 73.3 220 76.4C230.1 81.9 242.8 75.1 243.3 63.4C243.5 58.4 241.3 53 236.6 50.7C232.3 48.7 226.8 50.2 224.9 54.7C223.1 58.6 228.7 62 230.4 58.1Z" fill="#EE2E2B"/>
<path d="M118.3 59.5C118.1 68.9 128.5 77 137.7 74.4C142.4 73.1 143.9 68.3 148 66.1C152.5 63.7 157.6 64.5 161.6 67.5C164.9 70 168.2 64.4 164.9 61.9C159.5 57.8 151.9 57.1 145.7 60C142.2 61.6 140.6 64.3 137.9 66.8C133 71.3 124.7 65.2 124.8 59.5C124.9 55.3 118.4 55.3 118.3 59.5Z" fill="#EE2E2B"/>
<path d="M129.8 58.9C134 58.9 134 52.4 129.8 52.4C125.6 52.4 125.6 58.9 129.8 58.9Z" fill="#EE2E2B"/>
<path d="M197.1 76.7C201.3 76.7 201.3 70.2 197.1 70.2C192.9 70.2 192.9 76.7 197.1 76.7Z" fill="#EE2E2B"/>
<path d="M120.1 62.6C116.3 64.6 112 62.7 108.4 61.3C104.3 59.7 100.2 57.9 96.1 56.4C90 54.1 82.9 52.9 77.1 56.7C65.7 64 73.9 82 86.8 76.2C90.6 74.5 87.3 68.9 83.5 70.6C80.6 71.9 77.9 69.3 78 66.4C78.1 63.3 81 61.5 83.8 60.9C88.6 59.9 93.6 62.3 97.9 64.1C105.8 67.3 115 72.7 123.5 68.3C127.1 66.3 123.9 60.7 120.1 62.6Z" fill="#EE2E2B"/>
<path d="M77.4 81.4C74.9 76.5 69.8 72.9 64.1 74C58.9 75 55 79.4 55.2 84.8C55.3 90.9 59.8 95.3 63.7 99.5C66.2 102.1 68.1 104.7 68.7 108.4C69.4 112.7 69.2 117.3 69.4 121.6C69.6 125.8 76.1 125.8 75.9 121.6C75.5 112.8 76.1 103.9 70.1 96.8C67.3 93.5 63.3 90.7 62.1 86.5C61.2 83.5 62.7 80.3 66.2 80.3C68.9 80.3 70.7 82.5 71.8 84.7C73.7 88.4 79.3 85.1 77.4 81.4Z" fill="#EE2E2B"/>
<path d="M60.2 223.3C55.8 225.2 54.2 230.4 56 234.6C58 239.3 63.3 241.8 68.2 241.8C80.1 241.8 87.4001 228.8 81.8001 218.4C78.8001 212.8 73.4 208.7 70 203.3C66.2 197.3 63.1001 190.2 62.3001 183C61.6001 176.9 64.4 165.8 72.9 167.4C81.2 168.9 79.4 180.5 71.4 180.7C67.2 180.8 67.2 187.3 71.4 187.2C82.5 186.9 89.4 174 81.5 165.2C72.8 155.5 59.0001 163.3 56.3001 174.1C53.1001 187.1 60.4001 202.1 68.3001 212C72.3001 217 79.6 222.2 76.7 229.5C75.3 233 71.9 235.2 68.2 235.2C65.3 235.2 58.3 231.1 63.5 228.8C67.3 227.3 64 221.7 60.2 223.3Z" fill="#EE2E2B"/>
<path d="M64.9 123.4C70.2 123.3 76.1 130.5 72.9 135.5C70.8 138.8 67.2 140.5 65.4 144.2C62.5 150.4 63.1 157.9 67.3 163.4C69.8 166.7 75.5 163.5 72.9 160.1C70 156.3 69.2 151.5 71.2 147.1C73.2 142.7 78.4 141 79.8 136.2C82.5 126.9 74.2 116.6 64.9 116.8C60.7 117 60.7 123.5 64.9 123.4Z" fill="#EE2E2B"/>
<path d="M61 131.7C65.2 131.7 65.2 125.2 61 125.2C56.8 125.2 56.8 131.7 61 131.7Z" fill="#EE2E2B"/>
<path d="M78.8 199C83 199 83 192.5 78.8 192.5C74.6 192.4 74.6 199 78.8 199Z" fill="#EE2E2B"/>
<path d="M57.8 253.8C64 260.3 72.7 257.2 79.5 253.7C83.2 251.8 79.9 246.1 76.2 248.1C72.1 250.2 66.3 253.3 62.4 249.3C59.5 246.2 54.9 250.8 57.8 253.8Z" fill="#EE2E2B"/>
<path d="M62.8 263.1C56.4 267.9 52.8 277.3 56 285.1C59.1 292.7 68.7 295.2 75.3 290.4C78.5 288.1 80.5 284.5 81.7 280.8C82.8 277.2 84.6 271.4 82.3 267.9C79.4 263.4 66.4 257.5 63.1 264.2C61.3 268 66.9 271.3 68.7 267.5C68.8 267.3 68.9 267.1 69 266.9C68.4 267.4 67.7 267.9 67.1 268.4C70.2 267.2 76.7 269 76.7 272.7C76.7 276.6 75 282.3 71.9 284.9C67.8 288.4 62.1 285.7 61.5 280.6C61 276.4 62.7 271.4 66.1 268.9C69.4 266.3 66.2 260.6 62.8 263.1Z" fill="#EE2E2B"/>
<path d="M72.6 276C72.6 275.9 72.6 275.8 72.6 275.7C72.6 274 71.1 272.4 69.3 272.4C67.5 272.5 66 273.8 66 275.7C66 275.8 66 275.9 66 276C66 277.7 67.5 279.3 69.3 279.3C71.1 279.2 72.6 277.8 72.6 276Z" fill="#EE2E2B"/>
<path d="M62.1 308.7C59.4 305.9 66.3 303.1 67.8 302.9C70.5 302.5 72.7 303.5 74.1 305.8C76.4 309.6 75.3 314.6 73.1 318.2C68.1 326.6 58.9 331.6 55.3 341C52.1 349.2 55 358.5 61 364.6C64.3 368 68.5 370.2 72 373.3C73.7 374.8 75.3 376.5 76.1 378.7C76.8 380.6 77.5 387 73.2 385.5C69.2 384.1 67.5 390.4 71.5 391.8C75.9 393.4 80.3 390.9 82.2 386.8C84.1 382.7 83.2 377.9 81.1 374.1C75.7 364.3 61.1 361.9 60.5 349C59.9 336.6 74.9 329.8 79.8 319.7C83.6 312 82.5 300.6 73.5 297.1C64.7 293.7 48.5 304 57.6 313.3C60.5 316.3 65.1 311.6 62.1 308.7Z" fill="#EE2E2B"/>
<path d="M66.2 387.4C66.2 387.3 66.2 387.2 66.2 387.1C66.2 385.4 64.7 383.8 62.9 383.8C61.1 383.9 59.6 385.2 59.6 387.1C59.6 387.2 59.6 387.3 59.6 387.4C59.6 389.1 61.1 390.7 62.9 390.7C64.7 390.6 66.2 389.2 66.2 387.4Z" fill="#EE2E2B"/>
<path d="M73.2 335.9C66 341.4 66 350.9 72.1 357.3C75 360.4 79.6 355.7 76.7 352.7C73.8 349.6 72.7 344.4 76.5 341.5C79.8 339.1 76.5 333.4 73.2 335.9Z" fill="#EE2E2B"/>
<path d="M59.2 323.8C63.4 323.8 63.4 317.3 59.2 317.3C55 317.3 55 323.8 59.2 323.8Z" fill="#EE2E2B"/>
<path d="M60.7 413.4C62.3 411.7 64 409.9 65.6 408.2C67 406.7 68.6 404.3 70.3 403.1C69.2 403.1 68.1 403.1 67 403.1C68.8 404.1 70.5 406.6 71.8 408.2C73.4 410 74.9 411.8 76.3 413.7C78.9 417 83.5 412.4 80.9 409.1C78 405.4 74.5 399.8 70.3 397.5C69.3 397 68 396.9 67 397.5C62.9 400.2 59.4 405.2 56.1 408.8C53.3 411.8 57.9 416.5 60.7 413.4Z" fill="#EE2E2B"/>
<path d="M60.7 431.9C62.3 430.2 64 428.4 65.6 426.7C67 425.2 68.6 422.8 70.3 421.6C69.2 421.6 68.1 421.6 67 421.6C68.8 422.6 70.5 425.1 71.8 426.7C73.4 428.5 74.9 430.3 76.3 432.2C78.9 435.5 83.5 430.9 80.9 427.6C78 423.9 74.5 418.3 70.3 416C69.3 415.5 68 415.4 67 416C62.9 418.7 59.4 423.7 56.1 427.3C53.3 430.4 57.9 435 60.7 431.9Z" fill="#EE2E2B"/>
<path d="M74.6 437.8C70.3 443.7 64.7 448 58.2 451C56.1 452 56.1 455.7 58.2 456.6C63.5 459 64.1 466 68 469.8C71.3 473 76 473.9 80 471.7C78.5 470.2 77 468.7 75.5 467.2C71.8 472.9 67.1 477.8 61.5 481.7C59.9 482.8 59.1 485.3 60.8 486.8C65.7 491.1 71 494.7 76.8 497.8C80.5 499.7 83.8 494.1 80.1 492.2C74.8 489.4 69.9 486.2 65.4 482.3C65.2 484 65 485.7 64.7 487.4C71.3 482.9 76.7 477.3 81 470.6C82.8 467.8 79.3 464.6 76.5 466.1C72.4 468.4 69.8 461 68.4 458.4C66.7 455.3 64.6 452.5 61.3 451C61.3 452.9 61.3 454.7 61.3 456.6C68.9 453.2 75.2 447.9 80.1 441.1C82.7 437.7 77 434.5 74.6 437.8Z" fill="#EE2E2B"/>
<path d="M67 487.3C61.9 490.3 58.5 495.4 58 501.3C57.5 507.6 60.7 512.6 64.7 517.2C69.9 523 74.9 528.3 72.2 536.8C71.2 540.1 68.3 544.2 64.2 543.2C59.6 542 60.8 531.8 63.7 532.9C67.6 534.4 69.3 528.1 65.4 526.6C55.5 522.9 52.4 537.8 55.9 544.3C60.2 552.5 71.5 550.6 76.1 543.8C81.5 535.7 80 525.2 74.1 518C71 514.3 66.7 511 65 506.3C63.2 501.2 65.8 495.7 70.3 493C73.9 490.8 70.6 485.2 67 487.3Z" fill="#EE2E2B"/>
<path d="M76 511.2C80.2 511.2 80.2 504.7 76 504.7C71.8 504.7 71.8 511.2 76 511.2Z" fill="#EE2E2B"/>
<path d="M62.2 474.2C62.3 474.1 62.5 473.9 62.6 473.8C63.8 472.6 63.9 470.4 62.6 469.2C61.3 468 59.3 467.9 58 469.2C57.9 469.3 57.7 469.5 57.6 469.6C56.4 470.8 56.3 473 57.6 474.2C58.9 475.4 60.9 475.5 62.2 474.2Z" fill="#EE2E2B"/>
<path d="M64.7 548.2C67.8 555.8 70.8 563.3 73.9 570.9C74.9 569.5 76 568.2 77 566.8C63.1 568 56 582.7 57 595.5C57.4 601 60.4 606.7 66.1 608.2C71.1 609.5 76.3 606.5 77.5 601.5C78.5 597.4 72.2 595.7 71.2 599.8C70.2 604.2 65.4 601.3 64.2 598.7C62.6 595.3 63.3 590.9 64.1 587.5C65.6 580.9 69.5 574 76.9 573.4C78.8 573.2 80.9 571.4 80 569.3C76.9 561.7 73.9 554.2 70.8 546.6C69.5 542.7 63.2 544.4 64.7 548.2Z" fill="#EE2E2B"/>
<path d="M74.7 594.1C78.9 594.1 78.9 587.6 74.7 587.6C70.5 587.6 70.5 594.1 74.7 594.1Z" fill="#EE2E2B"/>
<path d="M60.8 564.1C65 564.1 65 557.6 60.8 557.6C56.6 557.6 56.6 564.1 60.8 564.1Z" fill="#EE2E2B"/>
<path d="M318.1 758.9C315.9 764.1 311.7 757.1 311.7 754.2C311.7 750.5 313.9 747.1 317.4 745.7C324.5 742.9 329.5 749.7 334.3 753.7C344.3 761.8 359.6 769.4 372.8 766.1C383.4 763.5 391.2 750.1 382.1 741.3C373.5 733 360 739.6 359.7 751C359.6 755.2 366.1 755.2 366.2 751C366.4 743.5 377 741.1 379.4 748.8C381.9 757.1 371 760.7 365 760.3C357.7 759.8 350.3 756.6 344.2 752.8C338.6 749.3 334.3 743.7 328.5 740.6C318.4 735.1 305.7 741.9 305.2 753.6C305 758.6 307.2 764 311.9 766.3C316.2 768.3 321.7 766.8 323.6 762.3C325.3 758.4 319.7 755 318.1 758.9Z" fill="#EE2E2B"/>
<path d="M430.1 757.5C430.3 748.1 419.9 740 410.7 742.6C406 743.9 404.5 748.7 400.4 750.9C395.9 753.3 390.8 752.5 386.8 749.5C383.5 747 380.2 752.6 383.5 755.1C388.9 759.2 396.5 759.9 402.7 757C406.2 755.4 407.8 752.7 410.5 750.2C415.4 745.7 423.7 751.8 423.6 757.5C423.5 761.6 430 761.6 430.1 757.5Z" fill="#EE2E2B"/>
<path d="M418.6 764.6C422.8 764.6 422.8 758.1 418.6 758.1C414.4 758.1 414.4 764.6 418.6 764.6Z" fill="#EE2E2B"/>
<path d="M351.4 746.8C355.6 746.8 355.6 740.3 351.4 740.3C347.2 740.3 347.2 746.8 351.4 746.8Z" fill="#EE2E2B"/>
<path d="M428.3 754.3C432.1 752.3 436.4 754.2 440 755.6C444.1 757.2 448.2 759 452.3 760.5C458.4 762.8 465.5 764 471.3 760.2C482.7 752.9 474.5 734.9 461.6 740.7C457.8 742.4 461.1 748 464.9 746.3C467.8 745 470.5 747.6 470.4 750.5C470.3 753.6 467.4 755.4 464.6 756C459.8 757 454.8 754.6 450.5 752.8C442.6 749.6 433.4 744.2 424.9 748.6C421.3 750.7 424.6 756.3 428.3 754.3Z" fill="#EE2E2B"/>
<path d="M471 735.6C473.5 740.5 478.6 744.1 484.3 743C489.5 742 493.4 737.6 493.2 732.2C493.1 726.1 488.6 721.7 484.7 717.5C482.2 714.9 480.3 712.3 479.7 708.6C479 704.3 479.2 699.7 479 695.4C478.8 691.2 472.3 691.2 472.5 695.4C472.9 704.2 472.3 713.1 478.3 720.2C481.1 723.5 485.1 726.3 486.3 730.5C487.2 733.5 485.7 736.7 482.2 736.7C479.5 736.7 477.7 734.5 476.6 732.3C474.8 728.6 469.1 731.9 471 735.6Z" fill="#EE2E2B"/>
<path d="M488.3 593.7C492.7 591.8 494.3 586.6 492.5 582.4C490.5 577.7 485.2 575.2 480.3 575.2C468.4 575.2 461.1 588.2 466.7 598.6C469.7 604.2 475.1 608.3 478.5 613.7C482.3 619.7 485.4 626.8 486.2 634C486.9 640.1 484.1 651.2 475.6 649.6C467.3 648.1 469.1 636.5 477.1 636.3C481.3 636.2 481.3 629.7 477.1 629.8C466 630.1 459.1 643 467 651.8C475.7 661.5 489.5 653.7 492.2 642.9C495.4 629.9 488.1 614.9 480.2 605C476.2 600 468.9 594.8 471.8 587.5C473.2 584 476.6 581.8 480.3 581.8C483.2 581.8 490.2 585.9 485 588.2C481.2 589.7 484.5 595.3 488.3 593.7Z" fill="#EE2E2B"/>
<path d="M483.6 693.5C478.3 693.6 472.4 686.4 475.6 681.4C477.7 678.1 481.3 676.4 483.1 672.7C486 666.5 485.4 659 481.2 653.5C478.7 650.2 473 653.4 475.6 656.8C478.5 660.6 479.3 665.4 477.3 669.8C475.3 674.2 470.1 675.9 468.7 680.7C466 690 474.3 700.3 483.6 700.1C487.8 700 487.8 693.5 483.6 693.5Z" fill="#EE2E2B"/>
<path d="M487.5 691.8C491.7 691.8 491.7 685.3 487.5 685.3C483.3 685.3 483.3 691.8 487.5 691.8Z" fill="#EE2E2B"/>
<path d="M469.7 624.6C473.9 624.6 473.9 618.1 469.7 618.1C465.5 618 465.5 624.6 469.7 624.6Z" fill="#EE2E2B"/>
<path d="M490.6 563.2C484.4 556.7 475.7 559.8 468.9 563.3C465.2 565.2 468.5 570.9 472.2 568.9C476.3 566.8 482.1 563.7 486 567.7C488.9 570.8 493.5 566.2 490.6 563.2Z" fill="#EE2E2B"/>
<path d="M485.6 553.9C492 549.1 495.6 539.7 492.4 531.9C489.3 524.3 479.7 521.8 473.1 526.6C469.9 528.9 467.9 532.5 466.7 536.2C465.6 539.8 463.8 545.6 466.1 549.1C469 553.6 482 559.5 485.3 552.8C487.1 549 481.5 545.7 479.7 549.5C479.6 549.7 479.5 549.9 479.4 550.1C480 549.6 480.7 549.1 481.3 548.6C478.2 549.8 471.7 548 471.7 544.3C471.7 540.4 473.4 534.7 476.5 532.1C480.6 528.6 486.3 531.3 486.9 536.4C487.4 540.6 485.7 545.6 482.3 548.1C479 550.7 482.3 556.4 485.6 553.9Z" fill="#EE2E2B"/>
<path d="M475.9 541C475.9 541.1 475.9 541.2 475.9 541.3C475.9 543 477.4 544.6 479.2 544.6C481 544.5 482.5 543.2 482.5 541.3C482.5 541.2 482.5 541.1 482.5 541C482.5 539.3 481 537.7 479.2 537.7C477.3 537.8 475.9 539.2 475.9 541Z" fill="#EE2E2B"/>
<path d="M486.3 508.3C489 511.1 482.1 513.9 480.6 514.1C477.9 514.5 475.7 513.5 474.3 511.2C472 507.4 473.1 502.4 475.3 498.8C480.3 490.4 489.5 485.4 493.1 476C496.3 467.8 493.4 458.5 487.4 452.4C484.1 449 479.9 446.8 476.4 443.7C474.7 442.2 473.1 440.5 472.3 438.3C471.6 436.4 470.9 430 475.2 431.5C479.2 432.9 480.9 426.6 476.9 425.2C472.5 423.6 468.1 426.1 466.2 430.2C464.3 434.3 465.2 439.1 467.3 442.9C472.7 452.7 487.3 455.1 487.9 468C488.5 480.4 473.5 487.2 468.6 497.3C464.8 505 465.9 516.4 474.9 519.9C483.7 523.3 499.9 513 490.8 503.7C488 500.7 483.4 505.3 486.3 508.3Z" fill="#EE2E2B"/>
<path d="M482.2 429.6C482.2 429.7 482.2 429.8 482.2 429.9C482.2 431.6 483.7 433.2 485.5 433.2C487.3 433.1 488.8 431.8 488.8 429.9C488.8 429.8 488.8 429.7 488.8 429.6C488.8 427.9 487.3 426.3 485.5 426.3C483.7 426.4 482.2 427.8 482.2 429.6Z" fill="#EE2E2B"/>
<path d="M475.3 481C482.5 475.5 482.5 466 476.4 459.6C473.5 456.5 468.9 461.2 471.8 464.2C474.7 467.3 475.8 472.5 472 475.4C468.7 477.9 471.9 483.6 475.3 481Z" fill="#EE2E2B"/>
<path d="M489.2 499.7C493.4 499.7 493.4 493.2 489.2 493.2C485.1 493.2 485 499.7 489.2 499.7Z" fill="#EE2E2B"/>
<path d="M487.7 403.6C486.1 405.3 484.4 407.1 482.8 408.8C481.4 410.3 479.8 412.7 478.1 413.9C479.2 413.9 480.3 413.9 481.4 413.9C479.6 412.9 477.9 410.4 476.6 408.8C475 407 473.5 405.2 472.1 403.3C469.5 400 464.9 404.6 467.5 407.9C470.4 411.6 473.9 417.2 478.1 419.5C479.1 420 480.4 420.1 481.4 419.5C485.5 416.8 489 411.8 492.3 408.2C495.2 405.2 490.6 400.5 487.7 403.6Z" fill="#EE2E2B"/>
<path d="M487.7 385.1C486.1 386.8 484.4 388.6 482.8 390.3C481.4 391.8 479.8 394.2 478.1 395.4C479.2 395.4 480.3 395.4 481.4 395.4C479.6 394.4 477.9 391.9 476.6 390.3C475 388.5 473.5 386.7 472.1 384.8C469.5 381.5 464.9 386.1 467.5 389.4C470.4 393.1 473.9 398.7 478.1 401C479.1 401.5 480.4 401.6 481.4 401C485.5 398.3 489 393.3 492.3 389.7C495.2 386.6 490.6 382 487.7 385.1Z" fill="#EE2E2B"/>
<path d="M473.9 379.2C478.2 373.3 483.8 369 490.3 366C492.4 365 492.4 361.3 490.3 360.4C485 358 484.4 351 480.5 347.2C477.2 344 472.5 343.1 468.5 345.3C470 346.8 471.5 348.3 473 349.8C476.7 344.1 481.4 339.2 487 335.3C488.6 334.2 489.4 331.7 487.7 330.2C482.8 325.9 477.5 322.3 471.7 319.2C468 317.3 464.7 322.9 468.4 324.8C473.7 327.6 478.6 330.8 483.1 334.7C483.3 333 483.5 331.3 483.8 329.6C477.2 334.1 471.8 339.7 467.5 346.4C465.7 349.2 469.2 352.4 472 350.9C476.1 348.6 478.7 356 480.1 358.6C481.8 361.7 483.9 364.5 487.2 366C487.2 364.1 487.2 362.3 487.2 360.4C479.6 363.8 473.3 369.1 468.4 375.9C465.8 379.3 471.4 382.5 473.9 379.2Z" fill="#EE2E2B"/>
<path d="M481.5 329.7C486.6 326.7 490 321.6 490.5 315.7C491 309.4 487.8 304.4 483.8 299.8C478.6 294 473.6 288.7 476.3 280.2C477.3 276.9 480.2 272.8 484.3 273.8C488.9 275 487.7 285.2 484.8 284.1C480.9 282.6 479.2 288.9 483.1 290.4C493 294.1 496.1 279.2 492.6 272.7C488.3 264.5 477 266.4 472.4 273.2C467 281.3 468.5 291.8 474.4 299C477.5 302.7 481.8 306 483.5 310.7C485.3 315.8 482.7 321.3 478.2 324C474.6 326.2 477.9 331.8 481.5 329.7Z" fill="#EE2E2B"/>
<path d="M472.5 312.3C476.7 312.3 476.7 305.8 472.5 305.8C468.3 305.8 468.3 312.3 472.5 312.3Z" fill="#EE2E2B"/>
<path d="M486.2 342.8C486.1 342.9 485.9 343.1 485.8 343.2C484.6 344.4 484.5 346.6 485.8 347.8C487.1 349 489.1 349.1 490.4 347.8C490.5 347.7 490.7 347.5 490.8 347.4C492 346.2 492.1 344 490.8 342.8C489.5 341.6 487.5 341.5 486.2 342.8Z" fill="#EE2E2B"/>
<path d="M483.7 268.7C480.6 261.1 477.6 253.6 474.5 246C473.5 247.4 472.4 248.7 471.4 250.1C485.3 248.9 492.4 234.2 491.4 221.4C491 215.9 488 210.2 482.3 208.7C477.3 207.4 472.1 210.4 470.9 215.4C469.9 219.5 476.2 221.2 477.2 217.1C478.2 212.7 483 215.6 484.2 218.2C485.8 221.6 485.1 226 484.3 229.4C482.8 236 478.9 242.9 471.5 243.5C469.6 243.7 467.5 245.5 468.4 247.6C471.5 255.2 474.5 262.7 477.6 270.3C479 274.3 485.3 272.6 483.7 268.7Z" fill="#EE2E2B"/>
<path d="M473.8 229.4C478 229.4 478 222.9 473.8 222.9C469.6 222.9 469.6 229.4 473.8 229.4Z" fill="#EE2E2B"/>
<path d="M487.6 259.4C491.8 259.4 491.8 252.9 487.6 252.9C483.5 252.9 483.5 259.4 487.6 259.4Z" fill="#EE2E2B"/>
<path d="M230.4 58.1C232.6 52.9 236.8 59.9 236.8 62.8C236.8 66.5 234.6 69.9 231.1 71.3C224 74.1 219 67.3 214.2 63.3C204.2 55.2 188.9 47.6 175.7 50.9C165.1 53.5 157.3 66.9 166.4 75.7C175 84 188.5 77.4 188.8 66C188.9 61.8 182.4 61.8 182.3 66C182.1 73.5 171.5 75.9 169.1 68.2C166.6 59.9 177.5 56.3 183.5 56.7C190.8 57.2 198.2 60.4 204.3 64.2C209.9 67.7 214.2 73.3 220 76.4C230.1 81.9 242.8 75.1 243.3 63.4C243.5 58.4 241.3 53 236.6 50.7C232.3 48.7 226.8 50.2 224.9 54.7C223.1 58.6 228.7 62 230.4 58.1Z" fill="#EE2E2B"/>
<path d="M118.3 59.5C118.1 68.9 128.5 77 137.7 74.4C142.4 73.1 143.9 68.3 148 66.1C152.5 63.7 157.6 64.5 161.6 67.5C164.9 70 168.2 64.4 164.9 61.9C159.5 57.8 151.9 57.1 145.7 60C142.2 61.6 140.6 64.3 137.9 66.8C133 71.3 124.7 65.2 124.8 59.5C124.9 55.3 118.4 55.3 118.3 59.5Z" fill="#EE2E2B"/>
<path d="M129.8 58.9C134 58.9 134 52.4 129.8 52.4C125.6 52.4 125.6 58.9 129.8 58.9Z" fill="#EE2E2B"/>
<path d="M197.1 76.7C201.3 76.7 201.3 70.2 197.1 70.2C192.9 70.2 192.9 76.7 197.1 76.7Z" fill="#EE2E2B"/>
<path d="M120.1 62.6C116.3 64.6 112 62.7 108.4 61.3C104.3 59.7 100.2 57.9 96.1 56.4C90 54.1 82.9 52.9 77.1 56.7C65.7 64 73.9 82 86.8 76.2C90.6 74.5 87.3 68.9 83.5 70.6C80.6 71.9 77.9 69.3 78 66.4C78.1 63.3 81 61.5 83.8 60.9C88.6 59.9 93.6 62.3 97.9 64.1C105.8 67.3 115 72.7 123.5 68.3C127.1 66.3 123.9 60.7 120.1 62.6Z" fill="#EE2E2B"/>
<path d="M77.4 81.4C74.9 76.5 69.8 72.9 64.1 74C58.9 75 55 79.4 55.2 84.8C55.3 90.9 59.8 95.3 63.7 99.5C66.2 102.1 68.1 104.7 68.7 108.4C69.4 112.7 69.2 117.3 69.4 121.6C69.6 125.8 76.1 125.8 75.9 121.6C75.5 112.8 76.1 103.9 70.1 96.8C67.3 93.5 63.3 90.7 62.1 86.5C61.2 83.5 62.7 80.3 66.2 80.3C68.9 80.3 70.7 82.5 71.8 84.7C73.7 88.4 79.3 85.1 77.4 81.4Z" fill="#EE2E2B"/>
<path d="M60.2 223.3C55.8 225.2 54.2 230.4 56 234.6C58 239.3 63.3 241.8 68.2 241.8C80.1 241.8 87.4001 228.8 81.8001 218.4C78.8001 212.8 73.4 208.7 70 203.3C66.2 197.3 63.1001 190.2 62.3001 183C61.6001 176.9 64.4 165.8 72.9 167.4C81.2 168.9 79.4 180.5 71.4 180.7C67.2 180.8 67.2 187.3 71.4 187.2C82.5 186.9 89.4 174 81.5 165.2C72.8 155.5 59.0001 163.3 56.3001 174.1C53.1001 187.1 60.4001 202.1 68.3001 212C72.3001 217 79.6 222.2 76.7 229.5C75.3 233 71.9 235.2 68.2 235.2C65.3 235.2 58.3 231.1 63.5 228.8C67.3 227.3 64 221.7 60.2 223.3Z" fill="#EE2E2B"/>
<path d="M64.9 123.4C70.2 123.3 76.1 130.5 72.9 135.5C70.8 138.8 67.2 140.5 65.4 144.2C62.5 150.4 63.1 157.9 67.3 163.4C69.8 166.7 75.5 163.5 72.9 160.1C70 156.3 69.2 151.5 71.2 147.1C73.2 142.7 78.4 141 79.8 136.2C82.5 126.9 74.2 116.6 64.9 116.8C60.7 117 60.7 123.5 64.9 123.4Z" fill="#EE2E2B"/>
<path d="M61 131.7C65.2 131.7 65.2 125.2 61 125.2C56.8 125.2 56.8 131.7 61 131.7Z" fill="#EE2E2B"/>
<path d="M78.8 199C83 199 83 192.5 78.8 192.5C74.6 192.4 74.6 199 78.8 199Z" fill="#EE2E2B"/>
<path d="M57.8 253.8C64 260.3 72.7 257.2 79.5 253.7C83.2 251.8 79.9 246.1 76.2 248.1C72.1 250.2 66.3 253.3 62.4 249.3C59.5 246.2 54.9 250.8 57.8 253.8Z" fill="#EE2E2B"/>
<path d="M62.8 263.1C56.4 267.9 52.8 277.3 56 285.1C59.1 292.7 68.7 295.2 75.3 290.4C78.5 288.1 80.5 284.5 81.7 280.8C82.8 277.2 84.6 271.4 82.3 267.9C79.4 263.4 66.4 257.5 63.1 264.2C61.3 268 66.9 271.3 68.7 267.5C68.8 267.3 68.9 267.1 69 266.9C68.4 267.4 67.7 267.9 67.1 268.4C70.2 267.2 76.7 269 76.7 272.7C76.7 276.6 75 282.3 71.9 284.9C67.8 288.4 62.1 285.7 61.5 280.6C61 276.4 62.7 271.4 66.1 268.9C69.4 266.3 66.2 260.6 62.8 263.1Z" fill="#EE2E2B"/>
<path d="M72.6 276C72.6 275.9 72.6 275.8 72.6 275.7C72.6 274 71.1 272.4 69.3 272.4C67.5 272.5 66 273.8 66 275.7C66 275.8 66 275.9 66 276C66 277.7 67.5 279.3 69.3 279.3C71.1 279.2 72.6 277.8 72.6 276Z" fill="#EE2E2B"/>
<path d="M62.1 308.7C59.4 305.9 66.3 303.1 67.8 302.9C70.5 302.5 72.7 303.5 74.1 305.8C76.4 309.6 75.3 314.6 73.1 318.2C68.1 326.6 58.9 331.6 55.3 341C52.1 349.2 55 358.5 61 364.6C64.3 368 68.5 370.2 72 373.3C73.7 374.8 75.3 376.5 76.1 378.7C76.8 380.6 77.5 387 73.2 385.5C69.2 384.1 67.5 390.4 71.5 391.8C75.9 393.4 80.3 390.9 82.2 386.8C84.1 382.7 83.2 377.9 81.1 374.1C75.7 364.3 61.1 361.9 60.5 349C59.9 336.6 74.9 329.8 79.8 319.7C83.6 312 82.5 300.6 73.5 297.1C64.7 293.7 48.5 304 57.6 313.3C60.5 316.3 65.1 311.6 62.1 308.7Z" fill="#EE2E2B"/>
<path d="M66.2 387.4C66.2 387.3 66.2 387.2 66.2 387.1C66.2 385.4 64.7 383.8 62.9 383.8C61.1 383.9 59.6 385.2 59.6 387.1C59.6 387.2 59.6 387.3 59.6 387.4C59.6 389.1 61.1 390.7 62.9 390.7C64.7 390.6 66.2 389.2 66.2 387.4Z" fill="#EE2E2B"/>
<path d="M73.2 335.9C66 341.4 66 350.9 72.1 357.3C75 360.4 79.6 355.7 76.7 352.7C73.8 349.6 72.7 344.4 76.5 341.5C79.8 339.1 76.5 333.4 73.2 335.9Z" fill="#EE2E2B"/>
<path d="M59.2 323.8C63.4 323.8 63.4 317.3 59.2 317.3C55 317.3 55 323.8 59.2 323.8Z" fill="#EE2E2B"/>
<path d="M60.7 413.4C62.3 411.7 64 409.9 65.6 408.2C67 406.7 68.6 404.3 70.3 403.1C69.2 403.1 68.1 403.1 67 403.1C68.8 404.1 70.5 406.6 71.8 408.2C73.4 410 74.9 411.8 76.3 413.7C78.9 417 83.5 412.4 80.9 409.1C78 405.4 74.5 399.8 70.3 397.5C69.3 397 68 396.9 67 397.5C62.9 400.2 59.4 405.2 56.1 408.8C53.3 411.8 57.9 416.5 60.7 413.4Z" fill="#EE2E2B"/>
<path d="M60.7 431.9C62.3 430.2 64 428.4 65.6 426.7C67 425.2 68.6 422.8 70.3 421.6C69.2 421.6 68.1 421.6 67 421.6C68.8 422.6 70.5 425.1 71.8 426.7C73.4 428.5 74.9 430.3 76.3 432.2C78.9 435.5 83.5 430.9 80.9 427.6C78 423.9 74.5 418.3 70.3 416C69.3 415.5 68 415.4 67 416C62.9 418.7 59.4 423.7 56.1 427.3C53.3 430.4 57.9 435 60.7 431.9Z" fill="#EE2E2B"/>
<path d="M74.6 437.8C70.3 443.7 64.7 448 58.2 451C56.1 452 56.1 455.7 58.2 456.6C63.5 459 64.1 466 68 469.8C71.3 473 76 473.9 80 471.7C78.5 470.2 77 468.7 75.5 467.2C71.8 472.9 67.1 477.8 61.5 481.7C59.9 482.8 59.1 485.3 60.8 486.8C65.7 491.1 71 494.7 76.8 497.8C80.5 499.7 83.8 494.1 80.1 492.2C74.8 489.4 69.9 486.2 65.4 482.3C65.2 484 65 485.7 64.7 487.4C71.3 482.9 76.7 477.3 81 470.6C82.8 467.8 79.3 464.6 76.5 466.1C72.4 468.4 69.8 461 68.4 458.4C66.7 455.3 64.6 452.5 61.3 451C61.3 452.9 61.3 454.7 61.3 456.6C68.9 453.2 75.2 447.9 80.1 441.1C82.7 437.7 77 434.5 74.6 437.8Z" fill="#EE2E2B"/>
<path d="M67 487.3C61.9 490.3 58.5 495.4 58 501.3C57.5 507.6 60.7 512.6 64.7 517.2C69.9 523 74.9 528.3 72.2 536.8C71.2 540.1 68.3 544.2 64.2 543.2C59.6 542 60.8 531.8 63.7 532.9C67.6 534.4 69.3 528.1 65.4 526.6C55.5 522.9 52.4 537.8 55.9 544.3C60.2 552.5 71.5 550.6 76.1 543.8C81.5 535.7 80 525.2 74.1 518C71 514.3 66.7 511 65 506.3C63.2 501.2 65.8 495.7 70.3 493C73.9 490.8 70.6 485.2 67 487.3Z" fill="#EE2E2B"/>
<path d="M76 511.2C80.2 511.2 80.2 504.7 76 504.7C71.8 504.7 71.8 511.2 76 511.2Z" fill="#EE2E2B"/>
<path d="M62.2 474.2C62.3 474.1 62.5 473.9 62.6 473.8C63.8 472.6 63.9 470.4 62.6 469.2C61.3 468 59.3 467.9 58 469.2C57.9 469.3 57.7 469.5 57.6 469.6C56.4 470.8 56.3 473 57.6 474.2C58.9 475.4 60.9 475.5 62.2 474.2Z" fill="#EE2E2B"/>
<path d="M64.7 548.2C67.8 555.8 70.8 563.3 73.9 570.9C74.9 569.5 76 568.2 77 566.8C63.1 568 56 582.7 57 595.5C57.4 601 60.4 606.7 66.1 608.2C71.1 609.5 76.3 606.5 77.5 601.5C78.5 597.4 72.2 595.7 71.2 599.8C70.2 604.2 65.4 601.3 64.2 598.7C62.6 595.3 63.3 590.9 64.1 587.5C65.6 580.9 69.5 574 76.9 573.4C78.8 573.2 80.9 571.4 80 569.3C76.9 561.7 73.9 554.2 70.8 546.6C69.5 542.7 63.2 544.4 64.7 548.2Z" fill="#EE2E2B"/>
<path d="M74.7 594.1C78.9 594.1 78.9 587.6 74.7 587.6C70.5 587.6 70.5 594.1 74.7 594.1Z" fill="#EE2E2B"/>
<path d="M60.8 564.1C65 564.1 65 557.6 60.8 557.6C56.6 557.6 56.6 564.1 60.8 564.1Z" fill="#EE2E2B"/>
<path d="M318.1 758.9C315.9 764.1 311.7 757.1 311.7 754.2C311.7 750.5 313.9 747.1 317.4 745.7C324.5 742.9 329.5 749.7 334.3 753.7C344.3 761.8 359.6 769.4 372.8 766.1C383.4 763.5 391.2 750.1 382.1 741.3C373.5 733 360 739.6 359.7 751C359.6 755.2 366.1 755.2 366.2 751C366.4 743.5 377 741.1 379.4 748.8C381.9 757.1 371 760.7 365 760.3C357.7 759.8 350.3 756.6 344.2 752.8C338.6 749.3 334.3 743.7 328.5 740.6C318.4 735.1 305.7 741.9 305.2 753.6C305 758.6 307.2 764 311.9 766.3C316.2 768.3 321.7 766.8 323.6 762.3C325.3 758.4 319.7 755 318.1 758.9Z" fill="#EE2E2B"/>
<path d="M430.1 757.5C430.3 748.1 419.9 740 410.7 742.6C406 743.9 404.5 748.7 400.4 750.9C395.9 753.3 390.8 752.5 386.8 749.5C383.5 747 380.2 752.6 383.5 755.1C388.9 759.2 396.5 759.9 402.7 757C406.2 755.4 407.8 752.7 410.5 750.2C415.4 745.7 423.7 751.8 423.6 757.5C423.5 761.6 430 761.6 430.1 757.5Z" fill="#EE2E2B"/>
<path d="M418.6 764.6C422.8 764.6 422.8 758.1 418.6 758.1C414.4 758.1 414.4 764.6 418.6 764.6Z" fill="#EE2E2B"/>
<path d="M351.4 746.8C355.6 746.8 355.6 740.3 351.4 740.3C347.2 740.3 347.2 746.8 351.4 746.8Z" fill="#EE2E2B"/>
<path d="M428.3 754.3C432.1 752.3 436.4 754.2 440 755.6C444.1 757.2 448.2 759 452.3 760.5C458.4 762.8 465.5 764 471.3 760.2C482.7 752.9 474.5 734.9 461.6 740.7C457.8 742.4 461.1 748 464.9 746.3C467.8 745 470.5 747.6 470.4 750.5C470.3 753.6 467.4 755.4 464.6 756C459.8 757 454.8 754.6 450.5 752.8C442.6 749.6 433.4 744.2 424.9 748.6C421.3 750.7 424.6 756.3 428.3 754.3Z" fill="#EE2E2B"/>
<path d="M471 735.6C473.5 740.5 478.6 744.1 484.3 743C489.5 742 493.4 737.6 493.2 732.2C493.1 726.1 488.6 721.7 484.7 717.5C482.2 714.9 480.3 712.3 479.7 708.6C479 704.3 479.2 699.7 479 695.4C478.8 691.2 472.3 691.2 472.5 695.4C472.9 704.2 472.3 713.1 478.3 720.2C481.1 723.5 485.1 726.3 486.3 730.5C487.2 733.5 485.7 736.7 482.2 736.7C479.5 736.7 477.7 734.5 476.6 732.3C474.8 728.6 469.1 731.9 471 735.6Z" fill="#EE2E2B"/>
<path d="M488.3 593.7C492.7 591.8 494.3 586.6 492.5 582.4C490.5 577.7 485.2 575.2 480.3 575.2C468.4 575.2 461.1 588.2 466.7 598.6C469.7 604.2 475.1 608.3 478.5 613.7C482.3 619.7 485.4 626.8 486.2 634C486.9 640.1 484.1 651.2 475.6 649.6C467.3 648.1 469.1 636.5 477.1 636.3C481.3 636.2 481.3 629.7 477.1 629.8C466 630.1 459.1 643 467 651.8C475.7 661.5 489.5 653.7 492.2 642.9C495.4 629.9 488.1 614.9 480.2 605C476.2 600 468.9 594.8 471.8 587.5C473.2 584 476.6 581.8 480.3 581.8C483.2 581.8 490.2 585.9 485 588.2C481.2 589.7 484.5 595.3 488.3 593.7Z" fill="#EE2E2B"/>
<path d="M483.6 693.5C478.3 693.6 472.4 686.4 475.6 681.4C477.7 678.1 481.3 676.4 483.1 672.7C486 666.5 485.4 659 481.2 653.5C478.7 650.2 473 653.4 475.6 656.8C478.5 660.6 479.3 665.4 477.3 669.8C475.3 674.2 470.1 675.9 468.7 680.7C466 690 474.3 700.3 483.6 700.1C487.8 700 487.8 693.5 483.6 693.5Z" fill="#EE2E2B"/>
<path d="M487.5 691.8C491.7 691.8 491.7 685.3 487.5 685.3C483.3 685.3 483.3 691.8 487.5 691.8Z" fill="#EE2E2B"/>
<path d="M469.7 624.6C473.9 624.6 473.9 618.1 469.7 618.1C465.5 618 465.5 624.6 469.7 624.6Z" fill="#EE2E2B"/>
<path d="M490.6 563.2C484.4 556.7 475.7 559.8 468.9 563.3C465.2 565.2 468.5 570.9 472.2 568.9C476.3 566.8 482.1 563.7 486 567.7C488.9 570.8 493.5 566.2 490.6 563.2Z" fill="#EE2E2B"/>
<path d="M485.6 553.9C492 549.1 495.6 539.7 492.4 531.9C489.3 524.3 479.7 521.8 473.1 526.6C469.9 528.9 467.9 532.5 466.7 536.2C465.6 539.8 463.8 545.6 466.1 549.1C469 553.6 482 559.5 485.3 552.8C487.1 549 481.5 545.7 479.7 549.5C479.6 549.7 479.5 549.9 479.4 550.1C480 549.6 480.7 549.1 481.3 548.6C478.2 549.8 471.7 548 471.7 544.3C471.7 540.4 473.4 534.7 476.5 532.1C480.6 528.6 486.3 531.3 486.9 536.4C487.4 540.6 485.7 545.6 482.3 548.1C479 550.7 482.3 556.4 485.6 553.9Z" fill="#EE2E2B"/>
<path d="M475.9 541C475.9 541.1 475.9 541.2 475.9 541.3C475.9 543 477.4 544.6 479.2 544.6C481 544.5 482.5 543.2 482.5 541.3C482.5 541.2 482.5 541.1 482.5 541C482.5 539.3 481 537.7 479.2 537.7C477.3 537.8 475.9 539.2 475.9 541Z" fill="#EE2E2B"/>
<path d="M486.3 508.3C489 511.1 482.1 513.9 480.6 514.1C477.9 514.5 475.7 513.5 474.3 511.2C472 507.4 473.1 502.4 475.3 498.8C480.3 490.4 489.5 485.4 493.1 476C496.3 467.8 493.4 458.5 487.4 452.4C484.1 449 479.9 446.8 476.4 443.7C474.7 442.2 473.1 440.5 472.3 438.3C471.6 436.4 470.9 430 475.2 431.5C479.2 432.9 480.9 426.6 476.9 425.2C472.5 423.6 468.1 426.1 466.2 430.2C464.3 434.3 465.2 439.1 467.3 442.9C472.7 452.7 487.3 455.1 487.9 468C488.5 480.4 473.5 487.2 468.6 497.3C464.8 505 465.9 516.4 474.9 519.9C483.7 523.3 499.9 513 490.8 503.7C488 500.7 483.4 505.3 486.3 508.3Z" fill="#EE2E2B"/>
<path d="M482.2 429.6C482.2 429.7 482.2 429.8 482.2 429.9C482.2 431.6 483.7 433.2 485.5 433.2C487.3 433.1 488.8 431.8 488.8 429.9C488.8 429.8 488.8 429.7 488.8 429.6C488.8 427.9 487.3 426.3 485.5 426.3C483.7 426.4 482.2 427.8 482.2 429.6Z" fill="#EE2E2B"/>
<path d="M475.3 481C482.5 475.5 482.5 466 476.4 459.6C473.5 456.5 468.9 461.2 471.8 464.2C474.7 467.3 475.8 472.5 472 475.4C468.7 477.9 471.9 483.6 475.3 481Z" fill="#EE2E2B"/>
<path d="M489.2 499.7C493.4 499.7 493.4 493.2 489.2 493.2C485.1 493.2 485 499.7 489.2 499.7Z" fill="#EE2E2B"/>
<path d="M487.7 403.6C486.1 405.3 484.4 407.1 482.8 408.8C481.4 410.3 479.8 412.7 478.1 413.9C479.2 413.9 480.3 413.9 481.4 413.9C479.6 412.9 477.9 410.4 476.6 408.8C475 407 473.5 405.2 472.1 403.3C469.5 400 464.9 404.6 467.5 407.9C470.4 411.6 473.9 417.2 478.1 419.5C479.1 420 480.4 420.1 481.4 419.5C485.5 416.8 489 411.8 492.3 408.2C495.2 405.2 490.6 400.5 487.7 403.6Z" fill="#EE2E2B"/>
<path d="M487.7 385.1C486.1 386.8 484.4 388.6 482.8 390.3C481.4 391.8 479.8 394.2 478.1 395.4C479.2 395.4 480.3 395.4 481.4 395.4C479.6 394.4 477.9 391.9 476.6 390.3C475 388.5 473.5 386.7 472.1 384.8C469.5 381.5 464.9 386.1 467.5 389.4C470.4 393.1 473.9 398.7 478.1 401C479.1 401.5 480.4 401.6 481.4 401C485.5 398.3 489 393.3 492.3 389.7C495.2 386.6 490.6 382 487.7 385.1Z" fill="#EE2E2B"/>
<path d="M473.9 379.2C478.2 373.3 483.8 369 490.3 366C492.4 365 492.4 361.3 490.3 360.4C485 358 484.4 351 480.5 347.2C477.2 344 472.5 343.1 468.5 345.3C470 346.8 471.5 348.3 473 349.8C476.7 344.1 481.4 339.2 487 335.3C488.6 334.2 489.4 331.7 487.7 330.2C482.8 325.9 477.5 322.3 471.7 319.2C468 317.3 464.7 322.9 468.4 324.8C473.7 327.6 478.6 330.8 483.1 334.7C483.3 333 483.5 331.3 483.8 329.6C477.2 334.1 471.8 339.7 467.5 346.4C465.7 349.2 469.2 352.4 472 350.9C476.1 348.6 478.7 356 480.1 358.6C481.8 361.7 483.9 364.5 487.2 366C487.2 364.1 487.2 362.3 487.2 360.4C479.6 363.8 473.3 369.1 468.4 375.9C465.8 379.3 471.4 382.5 473.9 379.2Z" fill="#EE2E2B"/>
<path d="M481.5 329.7C486.6 326.7 490 321.6 490.5 315.7C491 309.4 487.8 304.4 483.8 299.8C478.6 294 473.6 288.7 476.3 280.2C477.3 276.9 480.2 272.8 484.3 273.8C488.9 275 487.7 285.2 484.8 284.1C480.9 282.6 479.2 288.9 483.1 290.4C493 294.1 496.1 279.2 492.6 272.7C488.3 264.5 477 266.4 472.4 273.2C467 281.3 468.5 291.8 474.4 299C477.5 302.7 481.8 306 483.5 310.7C485.3 315.8 482.7 321.3 478.2 324C474.6 326.2 477.9 331.8 481.5 329.7Z" fill="#EE2E2B"/>
<path d="M472.5 312.3C476.7 312.3 476.7 305.8 472.5 305.8C468.3 305.8 468.3 312.3 472.5 312.3Z" fill="#EE2E2B"/>
<path d="M486.2 342.8C486.1 342.9 485.9 343.1 485.8 343.2C484.6 344.4 484.5 346.6 485.8 347.8C487.1 349 489.1 349.1 490.4 347.8C490.5 347.7 490.7 347.5 490.8 347.4C492 346.2 492.1 344 490.8 342.8C489.5 341.6 487.5 341.5 486.2 342.8Z" fill="#EE2E2B"/>
<path d="M483.7 268.7C480.6 261.1 477.6 253.6 474.5 246C473.5 247.4 472.4 248.7 471.4 250.1C485.3 248.9 492.4 234.2 491.4 221.4C491 215.9 488 210.2 482.3 208.7C477.3 207.4 472.1 210.4 470.9 215.4C469.9 219.5 476.2 221.2 477.2 217.1C478.2 212.7 483 215.6 484.2 218.2C485.8 221.6 485.1 226 484.3 229.4C482.8 236 478.9 242.9 471.5 243.5C469.6 243.7 467.5 245.5 468.4 247.6C471.5 255.2 474.5 262.7 477.6 270.3C479 274.3 485.3 272.6 483.7 268.7Z" fill="#EE2E2B"/>
<path d="M473.8 229.4C478 229.4 478 222.9 473.8 222.9C469.6 222.9 469.6 229.4 473.8 229.4Z" fill="#EE2E2B"/>
<path d="M487.6 259.4C491.8 259.4 491.8 252.9 487.6 252.9C483.5 252.9 483.5 259.4 487.6 259.4Z" fill="#EE2E2B"/>
<path d="M224.7 762.2C226.6 766.6 231.8 768.2 236 766.4C240.7 764.4 243.2 759.1 243.2 754.2C243.2 742.3 230.2 735 219.8 740.6C214.2 743.6 210.1 749 204.7 752.4C198.7 756.2 191.6 759.3 184.4 760.1C178.3 760.8 167.2 758 168.8 749.5C170.3 741.2 181.9 743 182.1 751C182.2 755.2 188.7 755.2 188.6 751C188.3 739.9 175.4 733 166.6 740.9C156.9 749.6 164.7 763.4 175.5 766.1C188.5 769.3 203.5 762 213.4 754.1C218.4 750.1 223.6 742.8 230.9 745.7C234.4 747.1 236.6 750.5 236.6 754.2C236.6 757.1 232.5 764.1 230.2 758.9C228.7 755 223.1 758.4 224.7 762.2Z" fill="#EE2E2B"/>
<path d="M124.8 757.5C124.7 752.2 131.9 746.3 136.9 749.5C140.2 751.6 141.9 755.2 145.6 757C151.8 759.9 159.3 759.3 164.8 755.1C168.1 752.6 164.9 746.9 161.5 749.5C157.7 752.4 152.9 753.2 148.5 751.2C144.1 749.2 142.4 744 137.6 742.6C128.3 739.9 118 748.2 118.2 757.5C118.4 761.6 124.9 761.7 124.8 757.5Z" fill="#EE2E2B"/>
<path d="M129.8 764.6C134 764.6 134 758.1 129.8 758.1C125.6 758.1 125.6 764.6 129.8 764.6Z" fill="#EE2E2B"/>
<path d="M197.1 746.8C201.3 746.8 201.3 740.3 197.1 740.3C192.9 740.3 192.9 746.8 197.1 746.8Z" fill="#EE2E2B"/>
<path d="M123.4 748.7C115 744.3 105.8 749.7 97.8 752.9C93.5 754.6 88.5 757 83.7 756.1C81 755.6 78 753.7 77.9 750.6C77.8 747.7 80.5 745.1 83.4 746.4C87.2 748.1 90.5 742.5 86.7 740.8C73.9 735 65.7 753.1 77 760.3C82.8 764 89.9 762.8 96 760.6C100.2 759.1 104.2 757.3 108.3 755.7C112 754.3 116.2 752.4 120 754.4C123.9 756.3 127.1 750.7 123.4 748.7Z" fill="#EE2E2B"/>
<path d="M71.8 732.3C70.7 734.5 68.9 736.7 66.2 736.7C63.2 736.7 61.4 734.2 61.9 731.3C62.8 726.6 67.2 723.6 70.1 720.1C76.2 713 75.6 704.2 75.9 695.3C76.1 691.1 69.6 691.1 69.4 695.3C69.2 699.4 69.3 703.5 68.8 707.6C68.3 711.7 66.5 714.5 63.7 717.5C59.8 721.6 55.4 726.1 55.2 732.2C55.1 737.6 58.9 742 64.1 743C69.8 744.1 74.9 740.5 77.4 735.6C79.3 731.9 73.7 728.6 71.8 732.3Z" fill="#EE2E2B"/>
<path d="M64.9 700.1C74.3 700.3 82.4 689.9 79.8 680.7C78.5 676 73.7 674.5 71.5 670.4C69.1 665.9 69.9 660.8 72.9 656.8C75.4 653.5 69.8 650.2 67.3 653.5C63.2 658.9 62.5 666.5 65.4 672.7C67 676.2 69.7 677.8 72.2 680.5C76.7 685.4 70.6 693.7 64.9 693.6C60.7 693.5 60.7 700 64.9 700.1Z" fill="#EE2E2B"/>
<path d="M61 691.8C65.2 691.8 65.2 685.3 61 685.3C56.8 685.3 56.8 691.8 61 691.8Z" fill="#EE2E2B"/>
<path d="M78.8 624.6C83 624.6 83 618.1 78.8 618.1C74.6 618 74.6 624.6 78.8 624.6Z" fill="#EE2E2B"/>
<path d="M323.7 55.8C321.8 51.4 316.6 49.8 312.4 51.6C307.7 53.6 305.2 58.9 305.2 63.8C305.2 75.7 318.2 83 328.6 77.4C334.2 74.4 338.3 69 343.7 65.6C349.7 61.8 356.8 58.7 364 57.9C370.1 57.2 381.2 60 379.6 68.5C378.1 76.8 366.5 75 366.3 67C366.2 62.8 359.7 62.8 359.8 67C360.1 78.1 373 85 381.8 77.1C391.5 68.4 383.7 54.6 372.9 51.9C359.9 48.7 344.9 56 335 63.9C330 67.9 324.8 75.2 317.5 72.3C314 70.9 311.8 67.5 311.8 63.8C311.8 60.9 315.9 53.9 318.2 59.1C319.7 63 325.3 59.6 323.7 55.8Z" fill="#EE2E2B"/>
<path d="M423.6 60.5C423.7 65.8 416.5 71.7 411.5 68.5C408.2 66.4 406.5 62.8 402.8 61C396.6 58.1 389.1 58.7 383.6 62.9C380.3 65.4 383.5 71.1 386.9 68.5C390.7 65.6 395.5 64.8 399.9 66.8C404.3 68.8 406 74 410.8 75.4C420.1 78.1 430.4 69.8 430.2 60.5C430 56.4 423.5 56.3 423.6 60.5Z" fill="#EE2E2B"/>
<path d="M418.6 59.9C422.8 59.9 422.8 53.4 418.6 53.4C414.4 53.4 414.4 59.9 418.6 59.9Z" fill="#EE2E2B"/>
<path d="M351.4 77.7C355.6 77.7 355.6 71.2 351.4 71.2C347.2 71.2 347.2 77.7 351.4 77.7Z" fill="#EE2E2B"/>
<path d="M425 69.3C433.4 73.7 442.6 68.3 450.6 65.1C454.9 63.4 459.9 61 464.7 61.9C467.4 62.4 470.4 64.3 470.5 67.4C470.6 70.3 467.9 72.9 465 71.6C461.2 69.9 457.9 75.5 461.7 77.2C474.5 83 482.7 64.9 471.4 57.7C465.6 54 458.5 55.2 452.4 57.4C448.2 58.9 444.2 60.7 440.1 62.3C436.4 63.7 432.2 65.6 428.4 63.6C424.6 61.7 421.3 67.3 425 69.3Z" fill="#EE2E2B"/>
<path d="M476.7 85.7C477.8 83.5 479.6 81.3 482.3 81.3C485.3 81.3 487.1 83.8 486.6 86.7C485.7 91.4 481.3 94.4 478.4 97.9C472.3 105 472.9 113.8 472.6 122.7C472.4 126.9 478.9 126.9 479.1 122.7C479.3 118.6 479.2 114.5 479.7 110.4C480.2 106.3 482 103.5 484.8 100.5C488.7 96.4 493.1 91.9 493.3 85.8C493.4 80.4 489.6 76 484.4 75C478.7 73.9 473.6 77.5 471.1 82.4C469.1 86.1 474.8 89.4 476.7 85.7Z" fill="#EE2E2B"/>
<path d="M483.6 117.9C474.2 117.7 466.1 128.1 468.7 137.3C470 142 474.8 143.5 477 147.6C479.4 152.1 478.6 157.2 475.6 161.2C473.1 164.5 478.7 167.8 481.2 164.5C485.3 159.1 486 151.5 483.1 145.3C481.5 141.8 478.8 140.2 476.3 137.5C471.8 132.6 477.9 124.3 483.6 124.4C487.8 124.5 487.8 118 483.6 117.9Z" fill="#EE2E2B"/>
<path d="M487.5 132.7C491.7 132.7 491.7 126.2 487.5 126.2C483.3 126.2 483.3 132.7 487.5 132.7Z" fill="#EE2E2B"/>
<path d="M469.7 200C473.9 200 473.9 193.5 469.7 193.5C465.5 193.4 465.5 200 469.7 200Z" fill="#EE2E2B"/>
<path d="M72.1 618.2C63.4 610.8 50.6 624.9 58.6 633C60.3 634.8 62.6 635.8 64.9 636.5C68.1 637.5 72.3 637.5 74.4 640.6C75.9 642.9 75.9 646.4 74 648.5C70.6 652.2 64.9 649.9 65.2 644.9C65.5 640.7 58.9 640.7 58.7 644.9C57.8 659.1 78.6 660.6 81.7 647.4C82.9 642.3 80.8 636.5 76.4 633.5C73.2 631.4 69.5 631.3 66 630C64.1 629.3 62.3 628.1 62.7 625.9C63 624.5 65.9 621.5 67.4 622.8C70.6 625.5 75.3 620.9 72.1 618.2Z" fill="#EE2E2B"/>
<path d="M268.7 740C266.3 744.8 261.3 746.3 256.5 747.9C251.5 749.5 246.8 749.8 241.7 748.3C237.7 747.1 236 753.4 240 754.6C246.7 756.6 253 756 259.5 753.8C265.5 751.8 271.4 749.3 274.3 743.3C276.2 739.5 270.6 736.2 268.7 740Z" fill="#EE2E2B"/>
<path d="M269.6 744.5C279.6 754 293.9 757.6 307.2 753.7C311.2 752.5 309.5 746.2 305.5 747.4C294.5 750.6 282.6 747.8 274.2 739.9C271.1 737 266.5 741.6 269.6 744.5Z" fill="#EE2E2B"/>
<path d="M272 762.7C276.2 762.7 276.2 756.2 272 756.2C267.8 756.2 267.8 762.7 272 762.7Z" fill="#EE2E2B"/>
<path d="M253.3 764.2C253.4 764.2 253.4 764.2 253.5 764.2C255.2 764.2 256.8 762.7 256.8 760.9C256.7 759.1 255.4 757.6 253.5 757.6C253.4 757.6 253.4 757.6 253.3 757.6C251.6 757.6 250 759.1 250 760.9C250.1 762.7 251.5 764.2 253.3 764.2Z" fill="#EE2E2B"/>
<path d="M289.6 764.5C293.8 764.5 293.8 758 289.6 758C285.4 757.9 285.4 764.5 289.6 764.5Z" fill="#EE2E2B"/>
<path d="M476.4 199.8C485.1 207.2 497.9 193.1 489.9 185C488.2 183.2 485.9 182.2 483.6 181.5C480.4 180.5 476.2 180.5 474.1 177.4C472.6 175.1 472.6 171.6 474.5 169.5C477.9 165.8 483.6 168.1 483.3 173.1C483 177.3 489.6 177.3 489.8 173.1C490.7 158.9 469.9 157.4 466.8 170.6C465.6 175.7 467.7 181.5 472.1 184.5C475.3 186.6 479 186.7 482.5 188C484.4 188.7 486.2 189.9 485.8 192.1C485.5 193.5 482.6 196.5 481.1 195.2C477.8 192.5 473.2 197.1 476.4 199.8Z" fill="#EE2E2B"/>
<path d="M279.7 78C282.1 73.2 287.1 71.7 291.9 70.1C296.9 68.5 301.6 68.2 306.7 69.7C310.7 70.9 312.4 64.6 308.4 63.4C301.7 61.4 295.4 62 288.9 64.2C282.9 66.2 277 68.7 274.1 74.7C272.2 78.5 277.8 81.8 279.7 78Z" fill="#EE2E2B"/>
<path d="M278.9 73.5C268.9 64 254.6 60.4 241.3 64.3C237.3 65.5 239 71.8 243 70.6C254 67.4 265.9 70.2 274.3 78.1C277.3 81 281.9 76.4 278.9 73.5Z" fill="#EE2E2B"/>
<path d="M276.5 61.8C280.7 61.8 280.7 55.3 276.5 55.3C272.3 55.3 272.3 61.8 276.5 61.8Z" fill="#EE2E2B"/>
<path d="M295.1 53.8C295 53.8 295 53.8 294.9 53.8C293.2 53.8 291.6 55.3 291.6 57.1C291.7 58.9 293 60.4 294.9 60.4C295 60.4 295 60.4 295.1 60.4C296.8 60.4 298.4 58.9 298.4 57.1C298.3 55.3 297 53.8 295.1 53.8Z" fill="#EE2E2B"/>
<path d="M258.9 60.1C263.1 60.1 263.1 53.6 258.9 53.6C254.7 53.5 254.7 60.1 258.9 60.1Z" fill="#EE2E2B"/>
<path d="M103.9 702.9V115.1C103.9 106.9 110.5 100.3 118.7 100.3H429.7C437.9 100.3 444.5 106.9 444.5 115.1V703C444.5 711.2 437.9 717.8 429.7 717.8H118.7C110.5 717.8 103.9 711.1 103.9 702.9Z" fill="#EE2E2B"/>
<path d="M232.1 222.2C237.8 208.5 242 192.3 233.5 178.8C225.8 166.6 211.8 164.5 199.2 170.3C187.9 175.5 179.5 186.3 176.4 198.2C173.2 210.7 176.4 223.7 183.3 234.3C190.2 244.9 200.1 253 209.6 261.1C220.7 270.5 231 280.5 239.5 292.4C248.4 305 255.7 319 260.2 333.7C264.3 347.3 266.3 362.9 260.5 376.3C253.6 392.3 235.5 401 218.7 396.1C210.4 393.6 202.6 388 198.5 380.3C194.4 372.6 195.1 361 204.8 358.1C208.8 356.9 207.1 350.6 203.1 351.8C189 356.1 186.7 372.7 193.3 384.2C200.3 396.5 214.6 404.1 228.5 404.1C242.6 404.1 256.1 396.4 263.5 384.5C271 372.4 271.6 357.6 269.3 344C264.3 314.3 246.4 286.1 224.7 265.7C206.9 249 176.6 231.2 182.1 202.3C184.9 187.5 199.6 170.6 216.3 173.8C224.5 175.4 229.8 183.2 231.3 191C233.3 201.1 229.5 211.4 225.7 220.5C224.2 224.3 230.5 226 232.1 222.2Z" fill="white"/>
<path d="M192.5 164.2C175.4 164.1 160.6 176.4 154.8 192.1C148 210.4 154.1 231.5 165 246.9C176.6 263.2 192.9 274.3 208.9 285.7C223.2 295.8 242.4 310.9 240 330.8C238.8 341.3 228.3 348 218.4 343.2C209.1 338.6 209.2 325.5 216.4 319.2C219.6 316.4 214.9 311.8 211.8 314.6C198.3 326.4 205.1 349.4 223.1 351.2C231.6 352 240 347.9 243.9 340.2C248.1 331.9 247 321.9 243.5 313.6C235.7 295.3 217.9 284.3 202.3 273.3C184 260.4 165.9 244.4 160.1 221.9C157.1 210.2 157.8 197.3 164.5 187C170.6 177.5 180.9 170.8 192.4 170.9C196.7 170.7 196.7 164.2 192.5 164.2Z" fill="white"/>
<path d="M141.2 208.4C134.3 202.8 126.4 199.1 117.6 197.8C115.1 197.4 112.2 200 113.9 202.6C117.6 208.2 119.8 214 121.5 220.5C123 226.2 124.5 231.9 128.3 236.5C134.4 244.1 146.4 246.3 152.3 237.3C154.6 233.8 149 230.5 146.7 234C144.3 237.6 139.3 237.3 136 235.1C132.3 232.5 130.4 227.9 129.1 223.8C126.5 215.2 124.6 207.1 119.5 199.4C118.3 201 117 202.6 115.8 204.2C123.5 205.3 130.5 208.2 136.5 213.2C139.8 215.6 144.4 211 141.2 208.4Z" fill="white"/>
<path d="M138.6 187.6C131.9 179.3 130.7 167.6 135.5 158.1C139.5 150 145.1 141.5 138.3 133.2C135.8 130.2 131.7 134 133.2 137.1C135.8 142.6 140.9 145.3 145.5 148.7C151.6 153.2 155.2 159.8 155.6 167.4C155.8 171.6 162.3 171.6 162.1 167.4C161.7 160.1 159.1 153.3 154.3 147.8C149.7 142.6 141.9 140.2 138.8 133.8C137.1 135.1 135.4 136.4 133.7 137.7C137.6 142.5 132.9 149.1 130.6 153.4C128.4 157.6 126.8 161.8 126.3 166.6C125.3 175.9 128.2 184.9 134 192.2C136.6 195.5 141.2 190.9 138.6 187.6Z" fill="white"/>
<path d="M146.5 180.3C150.7 180.3 150.7 173.8 146.5 173.8C142.3 173.8 142.3 180.3 146.5 180.3Z" fill="white"/>
<path d="M139.6 228.9C143.8 228.9 143.8 222.4 139.6 222.4C135.4 222.4 135.4 228.9 139.6 228.9Z" fill="white"/>
<path d="M166.9 262.6C152.5 257.5 139.8 274.3 149.1 286.6C153.7 292.7 161.5 295.5 167.8 299.5C175.4 304.3 182.2 310.5 185.2 319.2C190.3 334.5 184.1 355.2 169 362.5C153.2 370.2 130.6 358.1 125.1 342.1C121.9 332.9 124.2 321.5 133.7 317.1C142.8 312.8 153.6 319.3 152.3 329.7C151.8 333.8 158.3 333.8 158.8 329.7C159.8 321.5 154.6 313.6 147.1 310.5C139.4 307.3 130.6 309.9 124.7 315.5C110.1 329.3 118.8 351.4 132.6 361.9C147.9 373.5 169.2 375.3 182.6 360C194.8 346.1 197.7 323.2 186.7 307.7C180.4 298.8 171 293.6 161.8 288.3C157.4 285.7 152.3 282.5 152.5 276.7C152.7 269.9 159.3 266.6 165.3 268.7C169.2 270.3 170.9 264 166.9 262.6Z" fill="white"/>
<path d="M127.4 301.7C118.5 295.3 124.4 282.6 128.1 275.1C126.4 275.3 124.7 275.5 123 275.8C126.7 279.7 130.3 283.6 134 287.5C137.2 291 142 295.9 139.2 301C137.2 304.7 142.8 308 144.8 304.3C147.8 298.7 146.4 292.8 142.8 287.9C138.4 281.9 132.6 276.7 127.6 271.3C126.2 269.8 123.4 270.1 122.5 272C116.8 283.3 111.7 298.6 124.1 307.6C127.5 309.8 130.7 304.2 127.4 301.7Z" fill="white"/>
<path d="M130.9 299.2C135.1 299.2 135.1 292.7 130.9 292.7C126.7 292.7 126.7 299.2 130.9 299.2Z" fill="white"/>
<path d="M137.8 347C142 347 142 340.5 137.8 340.5C133.6 340.5 133.6 347 137.8 347Z" fill="white"/>
<path d="M149.1 352.2C153.3 352.2 153.3 345.7 149.1 345.7C144.9 345.7 144.9 352.2 149.1 352.2Z" fill="white"/>
<path d="M163.9 351.3C168.1 351.3 168.1 344.8 163.9 344.8C159.7 344.8 159.7 351.3 163.9 351.3Z" fill="white"/>
<path d="M183.8 155.9C185.6 152.2 187.4 148.3 190.4 145.4C194.7 141.2 199.7 142 205.1 143.5C214.6 146.2 223.4 146.2 232.3 141.7C230.8 141.3 229.3 140.9 227.8 140.5C232 148.1 237.1 157.4 232.8 166.1C230.9 169.8 236.6 173.1 238.4 169.4C243.9 158.3 238.9 147.2 233.4 137.2C232.5 135.6 230.5 135.3 228.9 136C223.6 138.7 217.7 139.7 211.8 138.5C206.5 137.4 201.4 135 195.9 135.6C186.7 136.6 181.7 144.9 178.1 152.5C176.3 156.4 181.9 159.7 183.8 155.9Z" fill="white"/>
<path d="M202.1 156.8C202.4 156.8 202.7 156.8 203 156.8C204.7 156.8 206.3 155.3 206.3 153.5C206.2 151.7 204.9 150.2 203 150.2C202.7 150.2 202.4 150.2 202.1 150.2C200.4 150.2 198.8 151.7 198.8 153.5C198.9 155.4 200.2 156.8 202.1 156.8Z" fill="white"/>
<path d="M216.2 157.9C216.2 158.2 216.2 158.5 216.2 158.8C216.2 160.5 217.7 162.1 219.5 162.1C221.3 162 222.8 160.7 222.8 158.8C222.8 158.5 222.8 158.2 222.8 157.9C222.8 156.2 221.3 154.6 219.5 154.6C217.7 154.8 216.2 156.1 216.2 157.9Z" fill="white"/>
<path d="M180.4 286.2C180.7 286.2 181 286.2 181.3 286.2C183 286.2 184.6 284.7 184.6 282.9C184.5 281.1 183.2 279.6 181.3 279.6C181 279.6 180.7 279.6 180.4 279.6C178.7 279.6 177.1 281.1 177.1 282.9C177.2 284.7 178.5 286.2 180.4 286.2Z" fill="white"/>
<path d="M193.4 294C197.6 294 197.6 287.5 193.4 287.5C189.2 287.5 189.2 294 193.4 294Z" fill="white"/>
<path d="M204.7 303.6C208.9 303.6 208.9 297.1 204.7 297.1C200.5 297 200.5 303.6 204.7 303.6Z" fill="white"/>
<path d="M142 259.5C142 259.2 142 258.9 142 258.6C142 256.9 140.5 255.3 138.7 255.3C136.9 255.4 135.4 256.7 135.4 258.6C135.4 258.9 135.4 259.2 135.4 259.5C135.4 261.2 136.9 262.8 138.7 262.8C140.5 262.7 142 261.3 142 259.5Z" fill="white"/>
<path d="M123.9 254.1C128.1 254.1 128.1 247.6 123.9 247.6C119.8 247.6 119.7 254.1 123.9 254.1Z" fill="white"/>
<path d="M211 376.4C219.1 392.1 240.9 392.4 249.8 377.4C251.9 373.8 246.3 370.5 244.2 374.1C237.7 385.1 222.4 384.4 216.6 373.1C214.7 369.4 209.1 372.7 211 376.4Z" fill="white"/>
<path d="M322.6 220.4C316.9 206.8 311.1 185.7 326.4 175.9C340 167.2 357 180.6 362.9 192.6C369.3 205.5 366.8 219.7 359 231.4C351.6 242.4 340.7 250.6 330.8 259.1C307.9 278.6 289.8 304.1 281.4 333.2C277.5 346.7 275.8 361.8 280.5 375.3C285.1 388.6 295.8 399 309.5 402.6C324.7 406.6 341.7 401.1 351.7 388.9C356.7 382.8 359.9 374.9 358.4 366.9C357.1 359.7 352.1 353.8 345.1 351.7C341.1 350.5 339.4 356.8 343.4 358C351.6 360.5 353.7 369.8 351.1 377.1C348.4 384.6 342 390.5 335.1 393.9C321.2 400.8 304.2 397.3 293.9 385.8C283.8 374.6 282.9 358.4 285.5 344.3C288.3 329.3 294.6 315 302.5 302C310.3 289 320.1 277.4 331.4 267.3C340.9 258.9 351.3 251.3 359.5 241.6C367.6 232.1 373.6 220.2 373.3 207.4C372.9 195 366.8 182.9 357.1 175.2C345.6 166.1 328.1 163 317.6 175.2C305.9 188.8 310.1 207.2 316.4 222.2C318 226 324.3 224.3 322.6 220.4Z" fill="white"/>
<path d="M355.9 170.7C378.3 170.6 391.6 193.1 389.7 213.5C387.5 236.9 370.3 255 352.4 268.5C336.8 280.2 318.3 290.1 307.9 307.3C303.1 315.4 300.2 325.1 302.4 334.5C304.3 342.9 310.8 349.4 319.4 350.8C328.4 352.3 338 348.2 341.8 339.6C345.7 331.1 343.6 320.5 336.5 314.4C333.4 311.7 328.7 316.2 331.9 319C338.1 324.4 339.4 335.2 332.9 341C326.4 346.9 315.1 345.2 310.6 337.7C305.6 329.2 308.8 318.3 313.5 310.5C318.4 302.4 325.5 295.9 333 290.3C348.6 278.4 365.6 268.4 378.4 253.2C390.9 238.3 399 218.9 395.5 199.2C392.1 180.3 375.6 164 355.9 164.1C351.8 164.2 351.7 170.7 355.9 170.7Z" fill="white"/>
<path d="M411.9 213C417.9 208.1 424.9 205.2 432.6 204C431.4 202.4 430.1 200.8 428.9 199.2C423.9 206.9 422 215 419.3 223.6C418.1 227.6 416.4 231.7 413 234.4C409.8 237 404.3 237.8 401.7 233.8C399.4 230.3 393.8 233.6 396.1 237.1C402 246.1 414 243.9 420.1 236.3C423.7 231.9 425.3 226.4 426.7 221C428.4 214.3 430.6 208.2 434.4 202.4C436.1 199.8 433.3 197.2 430.7 197.6C421.9 198.9 414 202.6 407.1 208.2C404 211 408.7 215.6 411.9 213Z" fill="white"/>
<path d="M414.5 192.2C420.3 185 423.2 175.9 422.2 166.6C421.7 161.9 420.1 157.6 417.9 153.4C415.6 149.1 410.9 142.5 414.8 137.7C413.1 136.4 411.4 135.1 409.7 133.8C406.6 140.3 398.8 142.7 394.2 147.8C389.3 153.3 386.7 160.1 386.4 167.4C386.2 171.6 392.7 171.6 392.9 167.4C393.3 159.8 396.9 153.2 403 148.7C407.6 145.3 412.7 142.5 415.3 137.1C416.8 134 412.7 130.1 410.2 133.2C403.4 141.5 409 150.1 413 158.1C417.8 167.6 416.5 179.3 409.9 187.6C407.3 190.9 411.9 195.5 414.5 192.2Z" fill="white"/>
<path d="M401.9 180.3C406.1 180.3 406.1 173.8 401.9 173.8C397.7 173.8 397.7 180.3 401.9 180.3Z" fill="white"/>
<path d="M408.9 228.9C413.1 228.9 413.1 222.4 408.9 222.4C404.7 222.4 404.7 228.9 408.9 228.9Z" fill="white"/>
<path d="M383.2 268.9C388.3 267.1 394.2 269.1 395.7 274.7C397.2 280.3 393.3 284.4 388.9 287.2C381 292.2 372.5 296.2 365.9 303C352.5 316.9 351.9 339.1 362.1 355C366.7 362.1 373.4 368 381.6 370.3C391.1 373 401.3 370.6 409.8 366C425.3 357.6 438.5 337.3 427.6 320.1C422.7 312.3 412.9 307.4 403.7 309.8C395.1 312.1 388.6 320.8 389.8 329.8C390.3 333.9 396.8 334 396.3 329.8C395.3 321.4 402.7 314.5 411 315.9C420 317.5 425.2 326.2 424.9 334.8C424.3 352.6 403.1 367.4 386 364.6C369.1 361.8 360.3 342.5 361.7 326.9C362.5 317.5 367.3 309.7 374.5 303.9C380.9 298.7 388.8 295.7 395.2 290.6C401.3 285.9 404.3 278.4 401.2 271C398 263.3 389.2 259.8 381.4 262.6C377.6 264 379.3 270.3 383.2 268.9Z" fill="white"/>
<path d="M424.4 307.4C436.8 298.4 431.7 283.2 426 271.8C425.1 269.9 422.3 269.7 420.9 271.1C415.8 276.5 410 281.7 405.7 287.7C402.1 292.6 400.7 298.6 403.7 304.1C405.7 307.8 411.3 304.5 409.3 300.8C406.6 295.7 411.3 290.8 414.5 287.3C418.1 283.4 421.8 279.5 425.5 275.6C423.8 275.4 422.1 275.2 420.4 274.9C424.2 282.4 430 295.1 421.1 301.5C417.7 304.2 421 309.8 424.4 307.4Z" fill="white"/>
<path d="M417.6 299.2C421.8 299.2 421.8 292.7 417.6 292.7C413.4 292.7 413.4 299.2 417.6 299.2Z" fill="white"/>
<path d="M410.6 347C414.8 347 414.8 340.5 410.6 340.5C406.4 340.5 406.4 347 410.6 347Z" fill="white"/>
<path d="M399.3 352.2C403.5 352.2 403.5 345.7 399.3 345.7C395.1 345.7 395.1 352.2 399.3 352.2Z" fill="white"/>
<path d="M384.6 351.3C388.8 351.3 388.8 344.8 384.6 344.8C380.4 344.8 380.4 351.3 384.6 351.3Z" fill="white"/>
<path d="M370.3 152.6C366.7 145.1 361.6 136.7 352.5 135.7C347.2 135.1 342.4 137.3 337.3 138.4C331.2 139.7 325 138.9 319.5 136.1C318 135.3 315.9 135.6 315 137.3C309.5 147.3 304.5 158.4 310 169.5C311.9 173.3 317.5 170 315.6 166.2C311.3 157.5 316.4 148.2 320.6 140.6C319.1 141 317.6 141.4 316.1 141.8C325 146.3 333.9 146.3 343.3 143.6C348.4 142.2 353.3 141.2 357.6 145.1C360.8 148 362.8 152.1 364.6 156C366.5 159.7 372.1 156.4 370.3 152.6Z" fill="white"/>
<path d="M346.4 150.3C346.1 150.3 345.8 150.3 345.5 150.3C343.8 150.3 342.2 151.8 342.2 153.6C342.3 155.4 343.6 156.9 345.5 156.9C345.8 156.9 346.1 156.9 346.4 156.9C348.1 156.9 349.7 155.4 349.7 153.6C349.6 151.8 348.2 150.3 346.4 150.3Z" fill="white"/>
<path d="M325.8 157.9C325.8 158.2 325.8 158.5 325.8 158.8C325.8 160.5 327.3 162.1 329.1 162.1C330.9 162 332.4 160.7 332.4 158.8C332.4 158.5 332.4 158.2 332.4 157.9C332.4 156.2 330.9 154.6 329.1 154.6C327.3 154.8 325.8 156.1 325.8 157.9Z" fill="white"/>
<path d="M368.1 279.7C367.8 279.7 367.5 279.7 367.2 279.7C365.5 279.7 363.9 281.2 363.9 283C364 284.8 365.3 286.3 367.2 286.3C367.5 286.3 367.8 286.3 368.1 286.3C369.8 286.3 371.4 284.8 371.4 283C371.3 281.2 369.9 279.7 368.1 279.7Z" fill="white"/>
<path d="M355.1 294C359.3 294 359.3 287.5 355.1 287.5C350.9 287.5 350.9 294 355.1 294Z" fill="white"/>
<path d="M343.8 303.6C348 303.6 348 297.1 343.8 297.1C339.6 297 339.6 303.6 343.8 303.6Z" fill="white"/>
<path d="M413 259.5C413 259.2 413 258.9 413 258.6C413 256.9 411.5 255.3 409.7 255.3C407.9 255.4 406.4 256.7 406.4 258.6C406.4 258.9 406.4 259.2 406.4 259.5C406.4 261.2 407.9 262.8 409.7 262.8C411.5 262.7 413 261.3 413 259.5Z" fill="white"/>
<path d="M424.5 254.1C428.7 254.1 428.7 247.6 424.5 247.6C420.3 247.6 420.3 254.1 424.5 254.1Z" fill="white"/>
<path d="M331.8 373.1C326 384.3 310.8 385.1 304.2 374.1C302.1 370.5 296.4 373.8 298.6 377.4C307.5 392.4 329.3 392.1 337.4 376.4C339.3 372.7 333.7 369.4 331.8 373.1Z" fill="white"/>
<path d="M225.8 597.6C231.5 611.2 237.3 632.3 222 642.1C208.4 650.8 191.4 637.4 185.5 625.4C179.1 612.5 181.6 598.3 189.4 586.6C196.8 575.6 207.7 567.4 217.6 558.9C240.5 539.4 258.6 513.9 267 484.8C270.9 471.3 272.6 456.2 267.9 442.7C263.3 429.4 252.6 419 238.9 415.4C223.7 411.4 206.7 416.9 196.7 429.1C191.7 435.2 188.5 443.1 190 451.1C191.3 458.3 196.3 464.2 203.3 466.3C207.3 467.5 209 461.2 205 460C196.8 457.5 194.7 448.2 197.3 440.9C200 433.4 206.4 427.5 213.3 424.1C227.2 417.2 244.2 420.7 254.5 432.2C264.6 443.4 265.5 459.6 262.9 473.7C260.1 488.7 253.8 503 245.9 516C238.1 529 228.3 540.6 217 550.7C207.5 559.1 197.1 566.7 188.9 576.4C180.8 585.9 174.8 597.8 175.1 610.6C175.5 623 181.6 635.1 191.3 642.8C202.8 651.9 220.3 655 230.8 642.8C242.5 629.2 238.3 610.8 232 595.8C230.5 592 224.2 593.7 225.8 597.6Z" fill="white"/>
<path d="M192.5 647.3C170.1 647.4 156.8 624.9 158.7 604.5C160.9 581.1 178.1 563 196 549.5C211.6 537.8 230.1 527.9 240.5 510.7C245.3 502.6 248.2 492.9 246 483.5C244.1 475.1 237.6 468.6 229 467.2C220 465.7 210.4 469.8 206.6 478.4C202.7 486.9 204.8 497.5 211.9 503.6C215 506.3 219.7 501.8 216.5 499C210.3 493.6 209 482.8 215.5 477C222 471.1 233.3 472.8 237.8 480.3C242.8 488.8 239.6 499.7 234.9 507.5C230 515.6 222.9 522.1 215.4 527.7C199.8 539.6 182.8 549.6 170 564.8C157.5 579.7 149.4 599.1 152.9 618.8C156.3 637.7 172.8 654 192.5 653.9C196.7 653.8 196.7 647.3 192.5 647.3Z" fill="white"/>
<path d="M136.6 605C130.6 609.9 123.6 612.8 115.9 614C117.1 615.6 118.4 617.2 119.6 618.8C124.6 611.1 126.5 603 129.2 594.4C130.4 590.4 132.1 586.3 135.5 583.6C138.7 581 144.2 580.2 146.8 584.2C149.1 587.7 154.7 584.4 152.4 580.9C146.5 571.9 134.5 574.1 128.4 581.7C124.8 586.1 123.2 591.6 121.8 597C120.1 603.7 117.9 609.8 114.1 615.6C112.4 618.2 115.2 620.8 117.8 620.4C126.6 619.1 134.5 615.4 141.4 609.8C144.4 607 139.8 602.4 136.6 605Z" fill="white"/>
<path d="M134 625.8C128.2 633 125.3 642.1 126.3 651.4C126.8 656.1 128.4 660.4 130.6 664.6C132.9 668.9 137.6 675.5 133.7 680.3C135.4 681.6 137.1 682.9 138.8 684.2C141.9 677.7 149.7 675.3 154.3 670.2C159.2 664.7 161.8 657.9 162.1 650.6C162.3 646.4 155.8 646.4 155.6 650.6C155.2 658.2 151.6 664.8 145.5 669.3C140.9 672.7 135.8 675.5 133.2 680.9C131.7 684 135.8 687.9 138.3 684.8C145.1 676.5 139.5 667.9 135.5 659.9C130.7 650.4 132 638.7 138.6 630.4C141.2 627.1 136.6 622.5 134 625.8Z" fill="white"/>
<path d="M146.5 644.2C150.7 644.2 150.7 637.7 146.5 637.7C142.3 637.7 142.3 644.2 146.5 644.2Z" fill="white"/>
<path d="M139.6 595.6C143.8 595.6 143.8 589.1 139.6 589.1C135.4 589.1 135.4 595.6 139.6 595.6Z" fill="white"/>
<path d="M165.2 549.1C160.1 550.9 154.2 548.9 152.7 543.3C151.2 537.7 155.1 533.6 159.5 530.8C167.4 525.8 175.9 521.8 182.5 515C195.9 501.1 196.5 478.9 186.3 463C181.7 455.9 175 450 166.8 447.7C157.3 445 147.1 447.4 138.6 452C123.1 460.4 109.9 480.7 120.8 497.9C125.7 505.7 135.5 510.6 144.7 508.2C153.3 505.9 159.8 497.2 158.6 488.2C158.1 484.1 151.6 484 152.1 488.2C153.1 496.6 145.7 503.5 137.4 502.1C128.4 500.5 123.2 491.8 123.5 483.2C124.1 465.4 145.3 450.6 162.4 453.4C179.3 456.2 188.1 475.5 186.7 491.1C185.9 500.5 181.1 508.3 173.9 514.1C167.5 519.3 159.6 522.3 153.2 527.4C147.1 532.1 144.1 539.6 147.2 547C150.4 554.7 159.2 558.2 167 555.4C170.9 554 169.2 547.7 165.2 549.1Z" fill="white"/>
<path d="M124.1 510.6C111.7 519.6 116.8 534.8 122.5 546.2C123.4 548.1 126.2 548.3 127.6 546.9C132.7 541.5 138.5 536.3 142.8 530.3C146.4 525.4 147.8 519.4 144.8 513.9C142.8 510.2 137.2 513.5 139.2 517.2C141.9 522.3 137.2 527.2 134 530.7C130.4 534.6 126.7 538.5 123 542.4C124.7 542.6 126.4 542.8 128.1 543.1C124.3 535.6 118.5 522.9 127.4 516.5C130.7 513.8 127.5 508.2 124.1 510.6Z" fill="white"/>
<path d="M130.9 525.3C135.1 525.3 135.1 518.8 130.9 518.8C126.7 518.8 126.7 525.3 130.9 525.3Z" fill="white"/>
<path d="M137.8 477.5C142 477.5 142 471 137.8 471C133.6 471 133.6 477.5 137.8 477.5Z" fill="white"/>
<path d="M149.1 472.3C153.3 472.3 153.3 465.8 149.1 465.8C144.9 465.8 144.9 472.3 149.1 472.3Z" fill="white"/>
<path d="M163.9 473.2C168.1 473.2 168.1 466.7 163.9 466.7C159.7 466.7 159.7 473.2 163.9 473.2Z" fill="white"/>
<path d="M178.1 665.4C181.7 672.9 186.8 681.3 195.9 682.3C201.2 682.9 206 680.7 211.1 679.6C217.2 678.3 223.4 679.1 228.9 681.9C230.4 682.7 232.5 682.4 233.4 680.7C238.9 670.7 243.9 659.6 238.4 648.5C236.5 644.7 230.9 648 232.8 651.8C237.1 660.5 232 669.8 227.8 677.4C229.3 677 230.8 676.6 232.3 676.2C223.4 671.7 214.5 671.7 205.1 674.4C200 675.8 195.1 676.8 190.8 672.9C187.6 670 185.6 665.9 183.8 662C181.9 658.3 176.3 661.6 178.1 665.4Z" fill="white"/>
<path d="M202.1 667.7C202.4 667.7 202.7 667.7 203 667.7C204.7 667.7 206.3 666.2 206.3 664.4C206.2 662.6 204.9 661.1 203 661.1C202.7 661.1 202.4 661.1 202.1 661.1C200.4 661.1 198.8 662.6 198.8 664.4C198.9 666.2 200.2 667.7 202.1 667.7Z" fill="white"/>
<path d="M222.7 660.1C222.7 659.8 222.7 659.5 222.7 659.2C222.7 657.5 221.2 655.9 219.4 655.9C217.6 656 216.1 657.3 216.1 659.2C216.1 659.5 216.1 659.8 216.1 660.1C216.1 661.8 217.6 663.4 219.4 663.4C221.2 663.2 222.7 661.9 222.7 660.1Z" fill="white"/>
<path d="M180.4 538.3C180.7 538.3 181 538.3 181.3 538.3C183 538.3 184.6 536.8 184.6 535C184.5 533.2 183.2 531.7 181.3 531.7C181 531.7 180.7 531.7 180.4 531.7C178.7 531.7 177.1 533.2 177.1 535C177.2 536.8 178.5 538.3 180.4 538.3Z" fill="white"/>
<path d="M193.4 530.5C197.6 530.5 197.6 524 193.4 524C189.2 524 189.2 530.5 193.4 530.5Z" fill="white"/>
<path d="M204.7 521C208.9 521 208.9 514.5 204.7 514.5C200.5 514.4 200.5 521 204.7 521Z" fill="white"/>
<path d="M135.4 558.5C135.4 558.8 135.4 559.1 135.4 559.4C135.4 561.1 136.9 562.7 138.7 562.7C140.5 562.6 142 561.3 142 559.4C142 559.1 142 558.8 142 558.5C142 556.8 140.5 555.2 138.7 555.2C136.9 555.3 135.4 556.7 135.4 558.5Z" fill="white"/>
<path d="M123.9 570.4C128.1 570.4 128.1 563.9 123.9 563.9C119.8 563.9 119.7 570.4 123.9 570.4Z" fill="white"/>
<path d="M216.6 444.9C222.4 433.7 237.6 432.9 244.2 443.9C246.3 447.5 252 444.2 249.8 440.6C240.9 425.6 219.1 425.9 211 441.6C209.1 445.3 214.7 448.6 216.6 444.9Z" fill="white"/>
<path d="M316.4 595.8C310.7 609.5 306.5 625.7 315 639.2C322.7 651.4 336.7 653.5 349.3 647.7C360.6 642.5 369 631.7 372.1 619.8C375.3 607.3 372.1 594.3 365.2 583.7C358.3 573.1 348.4 565 338.9 556.9C327.8 547.5 317.5 537.5 309 525.6C300.1 513 292.8 499 288.3 484.3C284.2 470.7 282.2 455.1 288 441.7C294.9 425.7 313 417 329.8 421.9C338.1 424.4 345.9 430 350 437.7C354.1 445.4 353.4 457 343.7 459.9C339.7 461.1 341.4 467.4 345.4 466.2C359.5 461.9 361.8 445.3 355.2 433.8C348.2 421.5 333.9 413.9 320 413.9C305.9 413.9 292.4 421.6 285 433.5C277.5 445.6 276.9 460.4 279.2 474C284.2 503.7 302.1 531.9 323.8 552.3C341.6 569 371.9 586.8 366.4 615.7C363.6 630.5 348.9 647.4 332.2 644.2C324 642.6 318.7 634.8 317.2 627C315.2 616.9 319 606.6 322.8 597.5C324.3 593.7 318 592 316.4 595.8Z" fill="white"/>
<path d="M355.9 653.8C373 653.9 387.8 641.6 393.6 625.9C400.4 607.6 394.3 586.5 383.4 571.1C371.8 554.8 355.5 543.7 339.5 532.3C325.2 522.2 306 507.1 308.4 487.2C309.6 476.7 320.1 470 330 474.8C339.3 479.4 339.2 492.5 332 498.8C328.8 501.6 333.5 506.2 336.6 503.4C350.1 491.6 343.3 468.6 325.3 466.8C316.8 466 308.4 470.1 304.5 477.8C300.3 486.1 301.4 496.1 304.9 504.4C312.7 522.7 330.5 533.7 346.1 544.7C364.4 557.6 382.5 573.6 388.3 596.1C391.3 607.8 390.6 620.7 383.9 631C377.8 640.5 367.5 647.2 356 647.1C351.7 647.3 351.7 653.8 355.9 653.8Z" fill="white"/>
<path d="M407.3 609.6C414.2 615.2 422.1 618.9 430.9 620.2C433.4 620.6 436.3 618 434.6 615.4C430.9 609.8 428.7 604 427 597.5C425.5 591.8 424 586.1 420.2 581.5C414.1 573.9 402.1 571.7 396.2 580.7C393.9 584.2 399.5 587.5 401.8 584C404.2 580.4 409.2 580.7 412.5 582.9C416.2 585.5 418.1 590.1 419.4 594.2C422 602.8 423.9 610.9 429 618.6C430.2 617 431.5 615.4 432.7 613.8C425 612.7 418 609.8 412 604.8C408.7 602.4 404 607 407.3 609.6Z" fill="white"/>
<path d="M409.9 630.4C416.6 638.7 417.8 650.4 413 659.9C409 668 403.4 676.5 410.2 684.8C412.7 687.8 416.8 684 415.3 680.9C412.7 675.4 407.6 672.7 403 669.3C396.9 664.8 393.3 658.2 392.9 650.6C392.7 646.4 386.2 646.4 386.4 650.6C386.8 657.9 389.4 664.7 394.2 670.2C398.8 675.4 406.6 677.8 409.7 684.2C411.4 682.9 413.1 681.6 414.8 680.3C410.9 675.5 415.6 668.9 417.9 664.6C420.1 660.4 421.7 656.2 422.2 651.4C423.2 642.1 420.3 633.1 414.5 625.8C411.9 622.5 407.3 627.1 409.9 630.4Z" fill="white"/>
<path d="M401.9 644.2C406.1 644.2 406.1 637.7 401.9 637.7C397.7 637.7 397.7 644.2 401.9 644.2Z" fill="white"/>
<path d="M408.9 595.6C413.1 595.6 413.1 589.1 408.9 589.1C404.7 589.1 404.7 595.6 408.9 595.6Z" fill="white"/>
<path d="M381.5 555.4C395.9 560.5 408.6 543.7 399.3 531.4C394.7 525.3 386.9 522.5 380.6 518.5C373 513.7 366.2 507.5 363.2 498.8C358.1 483.5 364.3 462.8 379.4 455.5C395.2 447.8 417.8 459.9 423.3 475.9C426.5 485.1 424.2 496.5 414.7 500.9C405.6 505.2 394.8 498.7 396.1 488.3C396.6 484.2 390.1 484.2 389.6 488.3C388.6 496.5 393.8 504.4 401.3 507.5C409 510.7 417.8 508.1 423.7 502.5C438.3 488.7 429.6 466.6 415.8 456.1C400.5 444.5 379.2 442.7 365.8 458C353.6 471.9 350.7 494.8 361.7 510.3C368 519.2 377.4 524.4 386.6 529.7C391 532.3 396.1 535.5 395.9 541.3C395.7 548.1 389.1 551.4 383.1 549.3C379.3 547.7 377.6 554 381.5 555.4Z" fill="white"/>
<path d="M421.1 516.3C430 522.7 424.1 535.4 420.4 542.9C422.1 542.7 423.8 542.5 425.5 542.2C421.8 538.3 418.2 534.4 414.5 530.5C411.3 527 406.5 522.1 409.3 517C411.3 513.3 405.7 510 403.7 513.7C400.7 519.3 402.1 525.2 405.7 530.1C410.1 536.1 415.9 541.3 420.9 546.7C422.3 548.2 425.1 547.9 426 546C431.7 534.7 436.8 519.4 424.4 510.4C421 508.2 417.7 513.8 421.1 516.3Z" fill="white"/>
<path d="M417.6 525.3C421.8 525.3 421.8 518.8 417.6 518.8C413.4 518.8 413.4 525.3 417.6 525.3Z" fill="white"/>
<path d="M410.6 477.5C414.8 477.5 414.8 471 410.6 471C406.4 471 406.4 477.5 410.6 477.5Z" fill="white"/>
<path d="M399.3 472.3C403.5 472.3 403.5 465.8 399.3 465.8C395.1 465.8 395.1 472.3 399.3 472.3Z" fill="white"/>
<path d="M384.6 473.2C388.8 473.2 388.8 466.7 384.6 466.7C380.4 466.7 380.4 473.2 384.6 473.2Z" fill="white"/>
<path d="M364.7 662.1C362.9 665.8 361.1 669.7 358.1 672.6C353.8 676.8 348.8 676 343.4 674.5C333.9 671.8 325.1 671.8 316.2 676.3C317.7 676.7 319.2 677.1 320.7 677.5C316.5 669.9 311.4 660.6 315.7 651.9C317.6 648.2 311.9 644.9 310.1 648.6C304.6 659.7 309.6 670.8 315.1 680.8C316 682.4 318 682.7 319.6 682C324.9 679.3 330.8 678.3 336.7 679.5C342 680.6 347.1 683 352.6 682.4C361.8 681.4 366.8 673.1 370.4 665.5C372.1 661.6 366.5 658.3 364.7 662.1Z" fill="white"/>
<path d="M346.4 661.2C346.1 661.2 345.8 661.2 345.5 661.2C343.8 661.2 342.2 662.7 342.2 664.5C342.3 666.3 343.6 667.8 345.5 667.8C345.8 667.8 346.1 667.8 346.4 667.8C348.1 667.8 349.7 666.3 349.7 664.5C349.6 662.6 348.2 661.2 346.4 661.2Z" fill="white"/>
<path d="M332.3 660.1C332.3 659.8 332.3 659.5 332.3 659.2C332.3 657.5 330.8 655.9 329 655.9C327.2 656 325.7 657.3 325.7 659.2C325.7 659.5 325.7 659.8 325.7 660.1C325.7 661.8 327.2 663.4 329 663.4C330.8 663.2 332.3 661.9 332.3 660.1Z" fill="white"/>
<path d="M368.1 531.8C367.8 531.8 367.5 531.8 367.2 531.8C365.5 531.8 363.9 533.3 363.9 535.1C364 536.9 365.3 538.4 367.2 538.4C367.5 538.4 367.8 538.4 368.1 538.4C369.8 538.4 371.4 536.9 371.4 535.1C371.3 533.3 369.9 531.8 368.1 531.8Z" fill="white"/>
<path d="M355.1 530.5C359.3 530.5 359.3 524 355.1 524C350.9 524 350.9 530.5 355.1 530.5Z" fill="white"/>
<path d="M343.8 521C348 521 348 514.5 343.8 514.5C339.6 514.4 339.6 521 343.8 521Z" fill="white"/>
<path d="M406.5 558.5C406.5 558.8 406.5 559.1 406.5 559.4C406.5 561.1 408 562.7 409.8 562.7C411.6 562.6 413.1 561.3 413.1 559.4C413.1 559.1 413.1 558.8 413.1 558.5C413.1 556.8 411.6 555.2 409.8 555.2C408 555.3 406.5 556.7 406.5 558.5Z" fill="white"/>
<path d="M424.5 570.4C428.7 570.4 428.7 563.9 424.5 563.9C420.3 563.9 420.3 570.4 424.5 570.4Z" fill="white"/>
<path d="M337.4 441.6C329.3 425.9 307.5 425.6 298.6 440.6C296.5 444.2 302.1 447.5 304.2 443.9C310.7 432.9 326 433.6 331.8 444.9C333.7 448.6 339.3 445.3 337.4 441.6Z" fill="white"/>
<path d="M264.9 513.9C261.2 543.2 239.8 564.9 216.8 581.3C207.1 588.2 196.3 596.9 195.9 610C195.5 620.9 204 630.7 214.6 632.6C218.7 633.3 220.5 627 216.3 626.3C210.6 625.3 205.7 621.6 203.5 616.2C201.2 610.5 202.9 604.6 206.2 599.7C209.8 594.4 215 590.6 220.2 586.9C225.3 583.3 230.3 579.6 235.1 575.5C253.8 559.6 268.4 538.7 271.5 513.9C271.9 509.8 265.4 509.8 264.9 513.9Z" fill="white"/>
<path d="M218.9 627.9C213.6 616.7 218.9 604.4 229.9 599.6C233.7 597.9 230.4 592.3 226.6 594C212.1 600.4 206.6 617.1 213.2 631.2C215.1 634.9 220.7 631.6 218.9 627.9Z" fill="white"/>
<path d="M260.8 561.4C255.2 571.5 247.9 580.3 239.1 587.8C237.7 589 238 591.2 239.1 592.4C247.7 601.6 250.6 614.7 246.7 626.7C245.4 630.7 251.7 632.4 253 628.4C257.5 614.2 253.9 598.6 243.7 587.7C243.7 589.2 243.7 590.8 243.7 592.3C252.9 584.5 260.5 575.1 266.4 564.6C268.4 561.1 262.8 557.8 260.8 561.4Z" fill="white"/>
<path d="M276.7 513.9C279.9 538.7 294.4 559.6 313.1 575.5C317.7 579.4 322.5 583 327.4 586.5C332.5 590.1 337.9 593.9 341.6 599.1C345.1 604 347 610.3 344.7 616.1C342.5 621.6 337.6 625.2 331.9 626.2C327.8 626.9 329.5 633.2 333.6 632.5C344.1 630.6 352.7 620.8 352.3 609.9C351.8 596.9 341.1 588.2 331.4 581.2C308.4 564.8 287 543.1 283.3 513.8C282.7 509.8 276.2 509.8 276.7 513.9Z" fill="white"/>
<path d="M334.8 631.2C341.5 617.1 336 600.4 321.4 594C317.6 592.3 314.3 597.9 318.1 599.6C329.2 604.4 334.4 616.7 329.1 627.9C327.4 631.6 333 634.9 334.8 631.2Z" fill="white"/>
<path d="M281.7 564.7C287.6 575.3 295.2 584.6 304.4 592.4C304.4 590.9 304.4 589.3 304.4 587.8C294.2 598.6 290.6 614.3 295.1 628.5C296.4 632.5 302.7 630.8 301.4 626.8C297.6 614.8 300.4 601.7 309 592.5C310.1 591.3 310.4 589.1 309 587.9C300.2 580.4 292.9 571.6 287.3 561.5C285.3 557.8 279.7 561.1 281.7 564.7Z" fill="white"/>
<path d="M255.7 595.7C267.6 599.8 280.4 599.7 292.2 595.4C296.1 594 294.4 587.7 290.5 589.1C279.7 593.1 268.3 593.2 257.5 589.4C253.5 588 251.8 594.3 255.7 595.7Z" fill="white"/>
<path d="M258.8 610.9C263.2 615.9 267.3 621.1 270.9 626.7C272.2 628.6 275.4 629 276.5 626.7C279.6 620.4 283.4 614.7 288 609.4C290.7 606.3 286.2 601.6 283.4 604.8C278.4 610.5 274.3 616.7 270.9 623.4C272.8 623.4 274.6 623.4 276.5 623.4C272.5 617.4 268.1 611.7 263.3 606.3C260.6 603.1 256 607.7 258.8 610.9Z" fill="white"/>
<path d="M273.6 580.8C277.8 580.8 277.8 574.3 273.6 574.3C269.4 574.3 269.4 580.8 273.6 580.8Z" fill="white"/>
<path d="M178.4 387.2C169.7 388.1 162.1 393.8 154.6 397.9C146.4 402.4 137.8 406.6 128.3 407.5C125.4 407.8 123.5 412 126.7 413.6C136.3 418.2 145.9 423.2 155.8 427.3C164.7 431 174.2 431.4 183.6 429.6C187.7 428.8 186 422.5 181.9 423.3C172.6 425.1 163.7 423.9 155.2 419.9C146.8 416 138.5 411.9 130.1 407.9C129.6 409.9 129 411.9 128.5 414C137.2 413.2 145.2 410.2 152.9 406.3C156.9 404.3 160.7 402.1 164.6 399.9C168.9 397.5 173.6 394.2 178.6 393.7C182.6 393.3 182.6 386.8 178.4 387.2Z" fill="white"/>
<path d="M182.8 408.5C182.8 408.3 182.8 408.1 182.8 407.9C182.8 406.2 181.3 404.6 179.5 404.6C177.7 404.7 176.2 406 176.2 407.9C176.2 408.1 176.2 408.3 176.2 408.5C176.2 410.2 177.7 411.8 179.5 411.8C181.4 411.7 182.8 410.3 182.8 408.5Z" fill="white"/>
<path d="M127 381.9C131.5 387 137.6 389.8 144.3 390.5C148.5 390.9 148.4 384.4 144.3 384C139.3 383.5 134.9 381 131.6 377.3C128.8 374.1 124.2 378.7 127 381.9Z" fill="white"/>
<path d="M132.1 445C135.1 442 138.7 440.3 142.8 439.5C146.9 438.8 145.2 432.5 141.1 433.2C135.9 434.1 131.2 436.7 127.5 440.4C124.5 443.3 129.2 447.9 132.1 445Z" fill="white"/>
<path d="M366.7 435.1C375.4 434.2 383 428.5 390.5 424.4C398.7 419.9 407.3 415.7 416.8 414.8C419.7 414.5 421.6 410.3 418.4 408.7C408.8 404.1 399.2 399.1 389.3 395C380.4 391.3 370.9 390.9 361.5 392.7C357.4 393.5 359.1 399.8 363.2 399C372.5 397.2 381.4 398.4 389.9 402.4C398.3 406.3 406.6 410.4 415 414.4C415.5 412.4 416.1 410.4 416.6 408.3C407.9 409.1 399.9 412.1 392.2 416C388.2 418 384.4 420.2 380.5 422.4C376.2 424.8 371.5 428.1 366.5 428.6C362.6 428.9 362.5 435.5 366.7 435.1Z" fill="white"/>
<path d="M362.3 413.7C362.3 413.9 362.3 414.1 362.3 414.3C362.3 416 363.8 417.6 365.6 417.6C367.4 417.5 368.9 416.2 368.9 414.3C368.9 414.1 368.9 413.9 368.9 413.7C368.9 412 367.4 410.4 365.6 410.4C363.8 410.5 362.3 411.9 362.3 413.7Z" fill="white"/>
<path d="M418.2 440.4C413.7 435.3 407.6 432.5 400.9 431.8C396.7 431.4 396.8 437.9 400.9 438.3C405.9 438.8 410.3 441.3 413.6 445C416.3 448.1 420.9 443.5 418.2 440.4Z" fill="white"/>
<path d="M413 377.3C410 380.3 406.4 382 402.3 382.8C398.2 383.5 399.9 389.8 404 389.1C409.2 388.2 413.9 385.6 417.6 381.9C420.6 378.9 416 374.3 413 377.3Z" fill="white"/>
<path d="M245.6 644.3C248 658.2 260 669.8 274.5 669.7C281.2 669.7 287.9 667 292.6 662.3C297.9 657 300.1 649.6 301.9 642.6C303 638.5 296.7 636.8 295.6 640.9C292.7 652 287.7 663.1 274.5 663.3C262.7 663.4 253.7 653.7 251.8 642.6C251.2 638.5 244.9 640.2 245.6 644.3Z" fill="white"/>
<path d="M273.3 647.9C277.5 647.9 277.5 641.4 273.3 641.4C269.2 641.4 269.2 647.9 273.3 647.9Z" fill="white"/>
<path d="M271.4 304.1C268.2 279.3 253.7 258.4 235 242.5C230.4 238.6 225.6 235 220.7 231.5C215.6 227.9 210.2 224.1 206.5 218.9C203 214 201.1 207.7 203.4 201.9C205.6 196.4 210.5 192.8 216.2 191.8C220.3 191.1 218.6 184.8 214.5 185.5C204 187.4 195.4 197.2 195.8 208.1C196.3 221.1 207 229.8 216.7 236.8C239.7 253.2 261.1 274.9 264.8 304.2C265.4 308.2 271.9 308.2 271.4 304.1Z" fill="white"/>
<path d="M213.3 186.8C206.6 200.9 212.1 217.6 226.7 224C230.5 225.7 233.8 220.1 230 218.4C218.9 213.6 213.7 201.3 219 190.1C220.7 186.4 215.1 183.1 213.3 186.8Z" fill="white"/>
<path d="M266.4 253.3C260.5 242.7 252.9 233.4 243.7 225.6C243.7 227.1 243.7 228.7 243.7 230.2C253.9 219.4 257.5 203.7 253 189.5C251.7 185.5 245.4 187.2 246.7 191.2C250.5 203.2 247.7 216.3 239.1 225.5C238 226.7 237.7 228.9 239.1 230.1C247.9 237.6 255.2 246.4 260.8 256.5C262.8 260.2 268.4 256.9 266.4 253.3Z" fill="white"/>
<path d="M283.2 304.1C286.9 274.8 308.3 253.1 331.3 236.7C341 229.8 351.8 221.1 352.2 208C352.6 197.1 344.1 187.3 333.5 185.4C329.4 184.7 327.6 191 331.8 191.7C337.5 192.7 342.4 196.4 344.6 201.8C346.9 207.5 345.2 213.4 341.9 218.3C338.3 223.6 333.1 227.4 327.9 231.1C322.8 234.7 317.8 238.4 313 242.5C294.3 258.4 279.7 279.3 276.6 304.1C276.2 308.2 282.7 308.2 283.2 304.1Z" fill="white"/>
<path d="M329.2 190.1C334.5 201.3 329.2 213.6 318.2 218.4C314.4 220.1 317.7 225.7 321.5 224C336 217.6 341.5 200.9 334.9 186.8C333.1 183.1 327.4 186.4 329.2 190.1Z" fill="white"/>
<path d="M287.3 256.6C292.9 246.5 300.2 237.7 309 230.2C310.4 229 310.1 226.8 309 225.6C300.4 216.4 297.5 203.3 301.4 191.3C302.7 187.3 296.4 185.6 295.1 189.6C290.6 203.8 294.2 219.4 304.4 230.3C304.4 228.8 304.4 227.2 304.4 225.7C295.2 233.5 287.6 242.9 281.7 253.4C279.7 256.9 285.3 260.2 287.3 256.6Z" fill="white"/>
<path d="M257.4 228.6C268.3 224.8 279.6 224.9 290.4 228.9C294.3 230.4 296 224.1 292.1 222.6C280.3 218.2 267.5 218.1 255.6 222.3C251.8 223.7 253.5 230 257.4 228.6Z" fill="white"/>
<path d="M263.4 211.7C268.2 206.3 272.6 200.6 276.6 194.6C274.7 194.6 272.9 194.6 271 194.6C274.3 201.4 278.5 207.6 283.5 213.2C286.3 216.4 290.8 211.7 288.1 208.6C283.5 203.3 279.7 197.6 276.6 191.3C275.5 189 272.2 189.4 271 191.3C267.3 196.8 263.3 202.1 258.9 207.1C256 210.3 260.6 214.9 263.4 211.7Z" fill="white"/>
<path d="M273.6 243.7C277.8 243.7 277.8 237.2 273.6 237.2C269.4 237.2 269.4 243.7 273.6 243.7Z" fill="white"/>
<path d="M251.9 175.4C253.8 164.2 262.7 154.7 274.6 154.7C287.8 154.7 292.9 166.1 295.7 177.1C296.8 181.2 303 179.4 302 175.4C300.2 168.5 298.1 161.5 293.2 156.2C288.5 151.2 281.5 148.3 274.6 148.3C260.1 148.2 248.1 159.8 245.7 173.7C244.9 177.8 251.2 179.5 251.9 175.4Z" fill="white"/>
<path d="M273.3 176.6C277.5 176.6 277.5 170.1 273.3 170.1C269.2 170.1 269.2 176.6 273.3 176.6Z" fill="white"/>
</g>
<defs>
<filter id="filter0_dd" x="0.0999756" y="0.399994" width="548.3" height="825.2" filterUnits="userSpaceOnUse" color-interpolation-filters="sRGB">
<feFlood flood-opacity="0" result="BackgroundImageFix"/>
<feColorMatrix in="SourceAlpha" type="matrix" values="0 0 0 0 0 0 0 0 0 0 0 0 0 0 0 0 0 0 127 0"/>
<feOffset dy="4"/>
<feGaussianBlur stdDeviation="2"/>
<feColorMatrix type="matrix" values="0 0 0 0 0 0 0 0 0 0 0 0 0 0 0 0 0 0 0.25 0"/>
<feBlend mode="normal" in2="BackgroundImageFix" result="effect1_dropShadow"/>
<feColorMatrix in="SourceAlpha" type="matrix" values="0 0 0 0 0 0 0 0 0 0 0 0 0 0 0 0 0 0 127 0"/>
<feOffset dy="4"/>
<feGaussianBlur stdDeviation="2"/>
<feColorMatrix type="matrix" values="0 0 0 0 0 0 0 0 0 0 0 0 0 0 0 0 0 0 0.25 0"/>
<feBlend mode="normal" in2="effect1_dropShadow" result="effect2_dropShadow"/>
<feBlend mode="normal" in="SourceGraphic" in2="effect2_dropShadow" result="shape"/>
</filter>
</defs>
</svg>
